Peel-Bold.ufo
<glyph name="exclam" format="1">
  <advance width="635"/>
  <unicode hex="0021"/>
  <outline>
    <contour>
      <point x="374" y="586" type="curve" smooth="yes"/>
      <point x="486" y="1316"/>
      <point x="489" y="1352"/>
      <point x="489" y="1380" type="curve" smooth="yes"/>
      <point x="489" y="1550"/>
      <point x="404" y="1627"/>
      <point x="322" y="1627" type="curve" smooth="yes"/>
      <point x="235" y="1627"/>
      <point x="152" y="1548"/>
      <point x="152" y="1373" type="curve" smooth="yes"/>
      <point x="152" y="1346"/>
      <point x="154" y="1313"/>
      <point x="250" y="590" type="curve" smooth="yes"/>
      <point x="255" y="542"/>
      <point x="284" y="518"/>
      <point x="313" y="518" type="curve" smooth="yes"/>
      <point x="341" y="518"/>
      <point x="369" y="541"/>
    </contour>
    <contour>
      <point x="394" y="-18"/>
      <point x="490" y="42"/>
      <point x="490" y="160" type="curve" smooth="yes"/>
      <point x="490" y="279"/>
      <point x="396" y="344"/>
      <point x="309" y="344" type="curve" smooth="yes"/>
      <point x="221" y="344"/>
      <point x="128" y="280"/>
      <point x="128" y="160" type="curve" smooth="yes"/>
      <point x="128" y="42"/>
      <point x="223" y="-18"/>
      <point x="309" y="-18" type="curve" smooth="yes"/>
    </contour>
  </outline>
</glyph>
<glyph name="asterisk" format="1">
  <advance width="1283"/>
  <unicode hex="002A"/>
  <outline>
    <contour>
      <point x="242.682" y="624.394" type="curve" smooth="yes"/>
      <point x="192.033" y="624.394"/>
      <point x="144.0" y="683.132"/>
      <point x="144.0" y="740.223" type="curve" smooth="yes"/>
      <point x="144.0" y="765.66"/>
      <point x="154.627" y="789.465"/>
      <point x="181.013" y="803.5" type="curve"/>
      <point x="571.013" y="955.5" type="line"/>
      <point x="181.013" y="1105.0" type="line"/>
      <point x="154.627" y="1119.03"/>
      <point x="144.0" y="1142.84"/>
      <point x="144.0" y="1168.28" type="curve" smooth="yes"/>
      <point x="144.0" y="1225.36"/>
      <point x="192.051" y="1284.11"/>
      <point x="242.682" y="1284.11" type="curve" smooth="yes"/>
      <point x="254.557" y="1284.11"/>
      <point x="266.818" y="1281.01"/>
      <point x="279.013" y="1274.0" type="curve"/>
      <point x="602.013" y="1034.0" type="line"/>
      <point x="545.013" y="1415.0" type="line"/>
      <point x="545.013" y="1469.0"/>
      <point x="594.013" y="1495.0"/>
      <point x="642.013" y="1495.0" type="curve" smooth="yes"/>
      <point x="690.013" y="1495.0"/>
      <point x="739.013" y="1469.0"/>
      <point x="739.013" y="1415.0" type="curve"/>
      <point x="682.013" y="1034.0" type="line"/>
      <point x="1005.01" y="1274.0" type="line"/>
      <point x="1017.21" y="1281.01"/>
      <point x="1029.47" y="1284.11"/>
      <point x="1041.34" y="1284.11" type="curve" smooth="yes"/>
      <point x="1091.99" y="1284.11"/>
      <point x="1140.03" y="1225.37"/>
      <point x="1140.03" y="1168.28" type="curve" smooth="yes"/>
      <point x="1140.03" y="1142.84"/>
      <point x="1129.4" y="1119.04"/>
      <point x="1103.01" y="1105.0" type="curve"/>
      <point x="713.013" y="955.5" type="line"/>
      <point x="1103.01" y="803.5" type="line"/>
      <point x="1129.4" y="789.465"/>
      <point x="1140.03" y="765.66"/>
      <point x="1140.03" y="740.223" type="curve" smooth="yes"/>
      <point x="1140.03" y="683.138"/>
      <point x="1091.97" y="624.394"/>
      <point x="1041.34" y="624.394" type="curve" smooth="yes"/>
      <point x="1029.47" y="624.394"/>
      <point x="1017.21" y="627.495"/>
      <point x="1005.01" y="634.5" type="curve"/>
      <point x="682.013" y="874.5" type="line"/>
      <point x="739.013" y="493.5" type="line"/>
      <point x="739.013" y="439.5"/>
      <point x="690.013" y="413.5"/>
      <point x="642.013" y="413.5" type="curve" smooth="yes"/>
      <point x="594.013" y="413.5"/>
      <point x="545.013" y="439.5"/>
      <point x="545.013" y="493.5" type="curve"/>
      <point x="602.013" y="874.5" type="line"/>
      <point x="279.013" y="634.5" type="line"/>
      <point x="266.818" y="627.495"/>
      <point x="254.557" y="624.394"/>
    </contour>
  </outline>
</glyph>
<glyph name="comma" format="1">
  <advance width="647"/>
  <unicode hex="002C"/>
  <outline>
    <contour>
      <point x="204" y="-334" type="line"/>
      <point x="404.937" y="-266.149"/>
      <point x="513.593" y="-109.64"/>
      <point x="513.593" y="43.4531" type="curve" smooth="yes"/>
      <point x="513.593" y="171.288"/>
      <point x="418.948" y="239"/>
      <point x="321" y="239" type="curve" smooth="yes"/>
      <point x="229" y="239"/>
      <point x="137" y="159"/>
      <point x="137" y="71" type="curve" smooth="yes"/>
      <point x="137" y="4.6282"/>
      <point x="161.5" y="-75"/>
      <point x="266" y="-96" type="curve"/>
      <point x="258.755" y="-143.961"/>
      <point x="212.5" y="-205"/>
      <point x="138" y="-258" type="curve"/>
    </contour>
  </outline>
</glyph>
<glyph name="two" format="1">
  <advance width="1311"/>
  <unicode hex="0032"/>
  <outline>
    <contour>
      <point x="155" y="0" type="line"/>
      <point x="1155" y="0" type="line"/>
      <point x="1155" y="259" type="line"/>
      <point x="520" y="259" type="line"/>
      <point x="866" y="595" type="line"/>
      <point x="1035" y="757"/>
      <point x="1151" y="905"/>
      <point x="1151" y="1100" type="curve" smooth="yes"/>
      <point x="1151" y="1363"/>
      <point x="952" y="1534"/>
      <point x="646" y="1534" type="curve" smooth="yes"/>
      <point x="442" y="1534"/>
      <point x="298" y="1480"/>
      <point x="176" y="1367" type="curve"/>
      <point x="277" y="1110" type="line"/>
      <point x="404" y="1238"/>
      <point x="516" y="1273"/>
      <point x="632" y="1273" type="curve" smooth="yes"/>
      <point x="785" y="1273"/>
      <point x="851" y="1207"/>
      <point x="851" y="1067" type="curve" smooth="yes"/>
      <point x="851" y="978"/>
      <point x="787" y="881"/>
      <point x="669" y="760" type="curve"/>
      <point x="155" y="217" type="line"/>
    </contour>
  </outline>
</glyph>
<glyph name="three" format="1">
  <advance width="1295"/>
  <unicode hex="0033"/>
  <outline>
    <contour>
      <point x="620" y="-19" type="curve" smooth="yes"/>
      <point x="930" y="-19"/>
      <point x="1160" y="150"/>
      <point x="1160" y="432" type="curve" smooth="yes"/>
      <point x="1160" y="603"/>
      <point x="1077" y="735"/>
      <point x="921" y="805" type="curve"/>
      <point x="1052" y="870"/>
      <point x="1124" y="989"/>
      <point x="1124" y="1140" type="curve" smooth="yes"/>
      <point x="1124" y="1402"/>
      <point x="888" y="1536"/>
      <point x="649" y="1536" type="curve" smooth="yes"/>
      <point x="431" y="1536"/>
      <point x="277" y="1493"/>
      <point x="143" y="1390" type="curve"/>
      <point x="237" y="1150" type="line"/>
      <point x="362" y="1249"/>
      <point x="471" y="1278"/>
      <point x="600" y="1278" type="curve" smooth="yes"/>
      <point x="761" y="1278"/>
      <point x="826" y="1230"/>
      <point x="826" y="1111" type="curve" smooth="yes"/>
      <point x="826" y="952"/>
      <point x="666" y="930"/>
      <point x="425" y="930" type="curve" smooth="yes"/>
      <point x="374" y="930" type="line"/>
      <point x="374" y="676" type="line"/>
      <point x="425" y="676" type="line" smooth="yes"/>
      <point x="714" y="676"/>
      <point x="881" y="642"/>
      <point x="881" y="441" type="curve" smooth="yes"/>
      <point x="881" y="310"/>
      <point x="783" y="239"/>
      <point x="601" y="239" type="curve" smooth="yes"/>
      <point x="458" y="239"/>
      <point x="361" y="274"/>
      <point x="236" y="371" type="curve"/>
      <point x="144" y="134" type="line"/>
      <point x="239" y="45"/>
      <point x="413" y="-19"/>
    </contour>
  </outline>
</glyph>
<glyph name="semicolon" format="1">
  <advance width="641"/>
  <unicode hex="003B"/>
  <outline>
    <contour>
      <point x="204" y="-238" type="line"/>
      <point x="405" y="-170"/>
      <point x="514" y="-14"/>
      <point x="514" y="139" type="curve" smooth="yes"/>
      <point x="514" y="267"/>
      <point x="419" y="335"/>
      <point x="321" y="335" type="curve" smooth="yes"/>
      <point x="229" y="335"/>
      <point x="137" y="255"/>
      <point x="137" y="167" type="curve" smooth="yes"/>
      <point x="137" y="101"/>
      <point x="162" y="21"/>
      <point x="266" y="0" type="curve"/>
      <point x="259" y="-48"/>
      <point x="213" y="-109"/>
      <point x="138" y="-162" type="curve"/>
    </contour>
    <contour>
      <point x="311" y="634" type="curve" smooth="yes"/>
      <point x="397" y="634"/>
      <point x="492" y="695"/>
      <point x="492" y="812" type="curve" smooth="yes"/>
      <point x="492" y="930"/>
      <point x="399" y="996"/>
      <point x="311" y="996" type="curve" smooth="yes"/>
      <point x="224" y="996"/>
      <point x="130" y="932"/>
      <point x="130" y="812" type="curve" smooth="yes"/>
      <point x="130" y="694"/>
      <point x="226" y="634"/>
    </contour>
  </outline>
</glyph>
<glyph name="less" format="1">
  <advance width="981"/>
  <unicode hex="003C"/>
  <outline>
    <contour>
      <point x="939" y="36" type="line"/>
      <point x="939" y="321" type="line"/>
      <point x="364" y="577" type="line"/>
      <point x="939" y="848" type="line"/>
      <point x="939" y="1125" type="line"/>
      <point x="37" y="700" type="line"/>
      <point x="37" y="465" type="line"/>
    </contour>
  </outline>
</glyph>
<glyph name="at" format="1">
  <advance width="1880"/>
  <unicode hex="0040"/>
  <outline>
    <contour>
      <point x="1282" y="219" type="line"/>
      <point x="1193" y="181"/>
      <point x="1077" y="157"/>
      <point x="981" y="157" type="curve" smooth="yes"/>
      <point x="657" y="157"/>
      <point x="369" y="326"/>
      <point x="369" y="760" type="curve" smooth="yes"/>
      <point x="369" y="1138"/>
      <point x="657" y="1352"/>
      <point x="980" y="1352" type="curve" smooth="yes"/>
      <point x="1305" y="1352"/>
      <point x="1595" y="1207"/>
      <point x="1595" y="803" type="curve" smooth="yes"/>
      <point x="1595" y="533"/>
      <point x="1523" y="454"/>
      <point x="1433" y="454" type="curve" smooth="yes"/>
      <point x="1352" y="454"/>
      <point x="1308" y="518"/>
      <point x="1308" y="632" type="curve" smooth="yes"/>
      <point x="1308" y="1211" type="line"/>
      <point x="1268" y="1214"/>
      <point x="1219" y="1216"/>
      <point x="1183" y="1216" type="curve" smooth="yes"/>
      <point x="673" y="1216"/>
      <point x="525" y="894"/>
      <point x="525" y="678" type="curve" smooth="yes"/>
      <point x="525" y="446"/>
      <point x="702" y="314"/>
      <point x="867" y="314" type="curve" smooth="yes"/>
      <point x="1013" y="314"/>
      <point x="1097" y="409"/>
      <point x="1128" y="505" type="curve"/>
      <point x="1179" y="354"/>
      <point x="1314" y="309"/>
      <point x="1428" y="309" type="curve" smooth="yes"/>
      <point x="1611" y="309"/>
      <point x="1827" y="450"/>
      <point x="1827" y="803" type="curve" smooth="yes"/>
      <point x="1827" y="1321"/>
      <point x="1382" y="1539"/>
      <point x="983" y="1539" type="curve" smooth="yes"/>
      <point x="566" y="1539"/>
      <point x="137" y="1278"/>
      <point x="137" y="760" type="curve" smooth="yes"/>
      <point x="137" y="241"/>
      <point x="580" y="-22"/>
      <point x="979" y="-22" type="curve" smooth="yes"/>
      <point x="1097" y="-22"/>
      <point x="1217" y="4"/>
      <point x="1327" y="50" type="curve"/>
    </contour>
    <contour>
      <point x="921" y="485" type="curve"/>
      <point x="811" y="485"/>
      <point x="747" y="534"/>
      <point x="747" y="694" type="curve" smooth="yes"/>
      <point x="747" y="956"/>
      <point x="952" y="1046"/>
      <point x="1077" y="1054" type="curve"/>
      <point x="1097" y="1054" type="line"/>
      <point x="1094" y="626" type="line"/>
      <point x="1085" y="591"/>
      <point x="1008" y="485"/>
    </contour>
  </outline>
</glyph>
<glyph name="A" format="1">
  <advance width="1706"/>
  <unicode hex="0041"/>
  <outline>
    <contour>
      <point x="75" y="0" type="line"/>
      <point x="383" y="0" type="line"/>
      <point x="585" y="436" type="line"/>
      <point x="1122" y="436" type="line"/>
      <point x="1335" y="0" type="line"/>
      <point x="1635" y="0" type="line"/>
      <point x="942" y="1516" type="line"/>
      <point x="731" y="1516" type="line"/>
    </contour>
    <contour>
      <point x="675" y="661" type="line"/>
      <point x="844" y="1121" type="line"/>
      <point x="1024" y="661" type="line"/>
    </contour>
    <contour>
      <point x="855" y="1516" type="move"/>
    </contour>
    <contour>
      <point x="1465" y="10" type="move"/>
    </contour>
  </outline>
</glyph>
<glyph name="F" format="1">
  <advance width="1146"/>
  <unicode hex="0046"/>
  <outline>
    <contour>
      <point x="168" y="0" type="line"/>
      <point x="462" y="0" type="line"/>
      <point x="462" y="622" type="line"/>
      <point x="1084" y="622" type="line"/>
      <point x="1084" y="898" type="line"/>
      <point x="462" y="898" type="line"/>
      <point x="462" y="1250" type="line"/>
      <point x="1103" y="1250" type="line"/>
      <point x="1103" y="1516" type="line"/>
      <point x="168" y="1516" type="line"/>
    </contour>
  </outline>
</glyph>
<glyph name="J" format="1">
  <advance width="773"/>
  <unicode hex="004A"/>
  <outline>
    <contour>
      <point x="50" y="-394" type="line"/>
      <point x="473" y="-393"/>
      <point x="608" y="-271"/>
      <point x="608" y="7" type="curve" smooth="yes"/>
      <point x="608" y="1516" type="line"/>
      <point x="314" y="1516" type="line"/>
      <point x="314" y="62" type="line" smooth="yes"/>
      <point x="314" y="-102"/>
      <point x="281" y="-138"/>
      <point x="50" y="-138" type="curve"/>
    </contour>
    <contour>
      <point x="398" y="1518" type="move"/>
    </contour>
  </outline>
</glyph>
<glyph name="K" format="1">
  <advance width="1522"/>
  <unicode hex="004B"/>
  <outline>
    <contour>
      <point x="174" y="0" type="line"/>
      <point x="468" y="0" type="line"/>
      <point x="468" y="682" type="line"/>
      <point x="1106" y="0" type="line"/>
      <point x="1440" y="0" type="line"/>
      <point x="1440" y="74" type="line"/>
      <point x="767" y="775" type="line"/>
      <point x="1342" y="1441" type="line"/>
      <point x="1342" y="1516" type="line"/>
      <point x="1041" y="1516" type="line"/>
      <point x="468" y="817" type="line"/>
      <point x="468" y="1516" type="line"/>
      <point x="174" y="1516" type="line"/>
    </contour>
    <contour>
      <point x="760" y="1516" type="move"/>
    </contour>
    <contour>
      <point x="760" y="0" type="move"/>
    </contour>
  </outline>
</glyph>
<glyph name="L" format="1">
  <advance width="1122"/>
  <unicode hex="004C"/>
  <outline>
    <contour>
      <point x="174" y="0" type="line"/>
      <point x="1094" y="0" type="line"/>
      <point x="1094" y="266" type="line"/>
      <point x="468" y="266" type="line"/>
      <point x="468" y="1516" type="line"/>
      <point x="174" y="1516" type="line"/>
    </contour>
    <contour>
      <point x="611" y="1516" type="move"/>
    </contour>
    <contour>
      <point x="611" y="0" type="move"/>
    </contour>
  </outline>
</glyph>
<glyph name="O" format="1">
  <advance width="1905"/>
  <unicode hex="004F"/>
  <outline>
    <contour>
      <point x="952" y="258" type="curve" smooth="yes"/>
      <point x="647" y="258"/>
      <point x="457" y="485"/>
      <point x="457" y="759" type="curve" smooth="yes"/>
      <point x="457" y="1033"/>
      <point x="647" y="1261"/>
      <point x="952" y="1261" type="curve" smooth="yes"/>
      <point x="1257" y="1261"/>
      <point x="1449" y="1033"/>
      <point x="1449" y="759" type="curve" smooth="yes"/>
      <point x="1449" y="485"/>
      <point x="1257" y="258"/>
    </contour>
    <contour>
      <point x="952" y="-22" type="curve" smooth="yes"/>
      <point x="1414" y="-22"/>
      <point x="1776" y="331"/>
      <point x="1776" y="759" type="curve" smooth="yes"/>
      <point x="1776" y="1189"/>
      <point x="1414" y="1539"/>
      <point x="952" y="1539" type="curve" smooth="yes"/>
      <point x="489" y="1539"/>
      <point x="129" y="1189"/>
      <point x="129" y="759" type="curve" smooth="yes"/>
      <point x="129" y="331"/>
      <point x="488" y="-22"/>
    </contour>
    <contour>
      <point x="954" y="1519" type="move"/>
    </contour>
  </outline>
</glyph>
<glyph name="S" format="1">
  <advance width="1209"/>
  <unicode hex="0053"/>
  <outline>
    <contour>
      <point x="628" y="-14" type="curve" smooth="yes"/>
      <point x="867" y="-14"/>
      <point x="1077" y="133"/>
      <point x="1077" y="407" type="curve" smooth="yes"/>
      <point x="1077" y="555"/>
      <point x="1013" y="687"/>
      <point x="827" y="812" type="curve"/>
      <point x="570" y="977" type="line" smooth="yes"/>
      <point x="486" y="1031"/>
      <point x="447" y="1093"/>
      <point x="447" y="1143" type="curve" smooth="yes"/>
      <point x="447" y="1206"/>
      <point x="485" y="1271"/>
      <point x="637" y="1271" type="curve" smooth="yes"/>
      <point x="818" y="1271"/>
      <point x="1020" y="1109"/>
      <point x="1020" y="1109" type="curve"/>
      <point x="1020" y="1411" type="line"/>
      <point x="1020" y="1411"/>
      <point x="863" y="1537"/>
      <point x="598" y="1537" type="curve" smooth="yes"/>
      <point x="287" y="1537"/>
      <point x="137" y="1340"/>
      <point x="137" y="1131" type="curve" smooth="yes"/>
      <point x="137" y="1010"/>
      <point x="200" y="865"/>
      <point x="331" y="778" type="curve" smooth="yes"/>
      <point x="646" y="569" type="line" smooth="yes"/>
      <point x="779" y="481"/>
      <point x="784" y="444"/>
      <point x="784" y="395" type="curve" smooth="yes"/>
      <point x="784" y="301"/>
      <point x="709" y="249"/>
      <point x="593" y="249" type="curve" smooth="yes"/>
      <point x="395" y="249"/>
      <point x="168" y="480"/>
      <point x="168" y="480" type="curve"/>
      <point x="168" y="152" type="line"/>
      <point x="168" y="152"/>
      <point x="315" y="-14"/>
    </contour>
    <contour>
      <point x="611" y="1516" type="move"/>
    </contour>
    <contour>
      <point x="611" y="0" type="move"/>
    </contour>
  </outline>
</glyph>
<glyph name="T" format="1">
  <advance width="1432"/>
  <unicode hex="0054"/>
  <outline>
    <contour>
      <point x="568" y="0" type="line"/>
      <point x="862" y="0" type="line"/>
      <point x="862" y="1250" type="line"/>
      <point x="1352" y="1250" type="line"/>
      <point x="1352" y="1516" type="line"/>
      <point x="80" y="1516" type="line"/>
      <point x="80" y="1250" type="line"/>
      <point x="568" y="1250" type="line"/>
    </contour>
    <contour>
      <point x="716" y="1516" type="move"/>
    </contour>
    <contour>
      <point x="716" y="0" type="move"/>
    </contour>
    <contour>
      <point x="716" y="758" type="move"/>
    </contour>
  </outline>
</glyph>
<glyph name="W" format="1">
  <advance width="2500"/>
  <unicode hex="0057"/>
  <outline>
    <contour>
      <point x="1676" y="-25" type="line"/>
      <point x="1803" y="-25" type="line"/>
      <point x="2400" y="1516" type="line"/>
      <point x="2089" y="1516" type="line"/>
      <point x="1739" y="552" type="line"/>
      <point x="1383" y="1516" type="line"/>
      <point x="1122" y="1516" type="line"/>
      <point x="754" y="560" type="line"/>
      <point x="422" y="1516" type="line"/>
      <point x="100" y="1516" type="line"/>
      <point x="694" y="-22" type="line"/>
      <point x="813" y="-22" type="line"/>
      <point x="1249" y="1070" type="line"/>
    </contour>
    <contour>
      <point x="1252" y="1516" type="move"/>
    </contour>
  </outline>
</glyph>
<glyph name="bracketright" format="1">
  <advance width="713"/>
  <unicode hex="005D"/>
  <outline>
    <contour>
      <point x="40" y="-18" type="line"/>
      <point x="718" y="-18" type="line"/>
      <point x="718" y="1567" type="line"/>
      <point x="40" y="1567" type="line"/>
      <point x="40" y="1280" type="line"/>
      <point x="402" y="1280" type="line"/>
      <point x="402" y="269" type="line"/>
      <point x="40" y="269" type="line"/>
    </contour>
  </outline>
</glyph>
<glyph name="grave" format="1">
  <advance width="368"/>
  <unicode hex="0060"/>
  <outline>
    <contour>
      <point x="315" y="79" type="curve" smooth="yes"/>
      <point x="369" y="79"/>
      <point x="374" y="130"/>
      <point x="374" y="144" type="curve" smooth="yes"/>
      <point x="374" y="148"/>
      <point x="375" y="160"/>
      <point x="369" y="178" type="curve"/>
      <point x="284" y="553" type="line"/>
      <point x="259" y="633"/>
      <point x="202" y="677"/>
      <point x="140" y="677" type="curve" smooth="yes"/>
      <point x="69" y="677"/>
      <point x="-3" y="622"/>
      <point x="-3" y="537" type="curve" smooth="yes"/>
      <point x="-3" y="501"/>
      <point x="9" y="464"/>
      <point x="38" y="427" type="curve"/>
      <point x="247" y="118" type="line"/>
      <point x="261" y="100"/>
      <point x="281" y="79"/>
    </contour>
    <contour>
      <point x="186" y="996" type="move"/>
    </contour>
  </outline>
</glyph>
<glyph name="b" format="1">
  <advance width="1281"/>
  <unicode hex="0062"/>
  <outline>
    <contour>
      <point x="551" y="-18" type="curve" smooth="yes"/>
      <point x="936" y="-18"/>
      <point x="1164" y="216"/>
      <point x="1164" y="541" type="curve" smooth="yes"/>
      <point x="1164" y="835"/>
      <point x="967" y="1017"/>
      <point x="714" y="1017" type="curve" smooth="yes"/>
      <point x="602" y="1017"/>
      <point x="497" y="952"/>
      <point x="467" y="915" type="curve"/>
      <point x="467" y="1490" type="line"/>
      <point x="187" y="1490" type="line"/>
      <point x="187" y="63" type="line"/>
      <point x="187" y="63"/>
      <point x="363" y="-18"/>
    </contour>
    <contour>
      <point x="557" y="217" type="curve" smooth="yes"/>
      <point x="525" y="217"/>
      <point x="480" y="221"/>
      <point x="467" y="222" type="curve"/>
      <point x="467" y="704" type="line"/>
      <point x="497" y="724"/>
      <point x="575" y="779"/>
      <point x="687" y="779" type="curve" smooth="yes"/>
      <point x="797" y="779"/>
      <point x="875" y="686"/>
      <point x="875" y="526" type="curve" smooth="yes"/>
      <point x="875" y="346"/>
      <point x="750" y="217"/>
    </contour>
  </outline>
</glyph>
<glyph name="d" format="1">
  <advance width="1259"/>
  <unicode hex="0064"/>
  <outline>
    <contour>
      <point x="726" y="-18" type="curve" smooth="yes"/>
      <point x="911" y="-18"/>
      <point x="1093" y="62"/>
      <point x="1093" y="62" type="curve"/>
      <point x="1093" y="1490" type="line"/>
      <point x="813" y="1490" type="line"/>
      <point x="813" y="964" type="line"/>
      <point x="771" y="998"/>
      <point x="686" y="1017"/>
      <point x="624" y="1017" type="curve" smooth="yes"/>
      <point x="289" y="1017"/>
      <point x="117" y="762"/>
      <point x="117" y="514" type="curve" smooth="yes"/>
      <point x="117" y="252"/>
      <point x="313" y="-18"/>
    </contour>
    <contour>
      <point x="739" y="216" type="curve" smooth="yes"/>
      <point x="513" y="216"/>
      <point x="399" y="354"/>
      <point x="399" y="503" type="curve" smooth="yes"/>
      <point x="399" y="652"/>
      <point x="498" y="772"/>
      <point x="656" y="772" type="curve" smooth="yes"/>
      <point x="744" y="772"/>
      <point x="813" y="743"/>
      <point x="813" y="743" type="curve"/>
      <point x="813" y="223" type="line"/>
      <point x="813" y="223"/>
      <point x="765" y="216"/>
    </contour>
  </outline>
</glyph>
<glyph name="e" format="1">
  <advance width="1241"/>
  <unicode hex="0065"/>
  <outline>
    <contour>
      <point x="694" y="-19" type="curve" smooth="yes"/>
      <point x="917" y="-19"/>
      <point x="1077" y="76"/>
      <point x="1077" y="76" type="curve"/>
      <point x="1077" y="325" type="line"/>
      <point x="1077" y="325"/>
      <point x="902" y="212"/>
      <point x="699" y="212" type="curve" smooth="yes"/>
      <point x="532" y="212"/>
      <point x="428" y="325"/>
      <point x="408" y="457" type="curve"/>
      <point x="1095" y="457" type="line"/>
      <point x="1095" y="519" type="line" smooth="yes"/>
      <point x="1095" y="797"/>
      <point x="945" y="1016"/>
      <point x="630" y="1016" type="curve" smooth="yes"/>
      <point x="334" y="1016"/>
      <point x="127" y="783"/>
      <point x="127" y="514" type="curve" smooth="yes"/>
      <point x="127" y="202"/>
      <point x="344" y="-19"/>
    </contour>
    <contour>
      <point x="427" y="629" type="line"/>
      <point x="449" y="720"/>
      <point x="543" y="806"/>
      <point x="643" y="806" type="curve" smooth="yes"/>
      <point x="746" y="806"/>
      <point x="833" y="734"/>
      <point x="854" y="629" type="curve"/>
    </contour>
    <contour>
      <point x="615" y="996" type="move"/>
    </contour>
    <contour>
      <point x="615" y="0" type="move"/>
    </contour>
    <contour>
      <point x="1053" y="10" type="move"/>
    </contour>
  </outline>
</glyph>
<glyph name="f" format="1">
  <advance width="864"/>
  <unicode hex="0066"/>
  <outline>
    <contour>
      <point x="220" y="0" type="line"/>
      <point x="501" y="0" type="line"/>
      <point x="501" y="789" type="line"/>
      <point x="679" y="789" type="line"/>
      <point x="679" y="996" type="line"/>
      <point x="501" y="996" type="line"/>
      <point x="501" y="1060" type="line" smooth="yes"/>
      <point x="501" y="1167"/>
      <point x="559" y="1202"/>
      <point x="640" y="1202" type="curve" smooth="yes"/>
      <point x="685" y="1202"/>
      <point x="737" y="1192"/>
      <point x="790" y="1176" type="curve"/>
      <point x="790" y="1390" type="line"/>
      <point x="689" y="1423"/>
      <point x="609" y="1433"/>
      <point x="553" y="1433" type="curve" smooth="yes"/>
      <point x="315" y="1433"/>
      <point x="216" y="1255"/>
      <point x="216" y="1021" type="curve" smooth="yes"/>
      <point x="216" y="996" type="line"/>
      <point x="86" y="996" type="line"/>
      <point x="86" y="788" type="line"/>
      <point x="220" y="788" type="line"/>
    </contour>
  </outline>
</glyph>
<glyph name="g" format="1">
  <advance width="1271"/>
  <unicode hex="0067"/>
  <outline>
    <contour>
      <point x="646" y="-437" type="curve" smooth="yes"/>
      <point x="866" y="-437"/>
      <point x="1097" y="-328"/>
      <point x="1097" y="-2" type="curve" smooth="yes"/>
      <point x="1097" y="996" type="line"/>
      <point x="820" y="996" type="line"/>
      <point x="820" y="893" type="line"/>
      <point x="781" y="962"/>
      <point x="661" y="1015"/>
      <point x="589" y="1015" type="curve" smooth="yes"/>
      <point x="339" y="1015"/>
      <point x="117" y="802"/>
      <point x="117" y="524" type="curve" smooth="yes"/>
      <point x="117" y="281"/>
      <point x="272" y="0"/>
      <point x="589" y="0" type="curve" smooth="yes"/>
      <point x="712" y="0"/>
      <point x="813" y="59"/>
      <point x="834" y="95" type="curve"/>
      <point x="847" y="60"/>
      <point x="853" y="29"/>
      <point x="853" y="1" type="curve" smooth="yes"/>
      <point x="853" y="-128"/>
      <point x="731" y="-189"/>
      <point x="619" y="-189" type="curve" smooth="yes"/>
      <point x="455" y="-189"/>
      <point x="300" y="-95"/>
      <point x="300" y="-95" type="curve"/>
      <point x="300" y="-362" type="line"/>
      <point x="300" y="-362"/>
      <point x="454" y="-437"/>
    </contour>
    <contour>
      <point x="649" y="242" type="curve" smooth="yes"/>
      <point x="496" y="242"/>
      <point x="403" y="340"/>
      <point x="403" y="515" type="curve" smooth="yes"/>
      <point x="403" y="676"/>
      <point x="527" y="775"/>
      <point x="645" y="775" type="curve" smooth="yes"/>
      <point x="696" y="775"/>
      <point x="784" y="756"/>
      <point x="817" y="708" type="curve"/>
      <point x="817" y="281" type="line"/>
      <point x="759" y="262"/>
      <point x="694" y="242"/>
    </contour>
    <contour>
      <point x="620" y="996" type="move"/>
    </contour>
  </outline>
</glyph>
<glyph name="i" format="1">
  <advance width="624"/>
  <unicode hex="0069"/>
  <outline>
    <contour>
      <point x="172" y="0" type="line"/>
      <point x="452" y="0" type="line"/>
      <point x="452" y="996" type="line"/>
      <point x="172" y="996" type="line"/>
    </contour>
    <contour>
      <point x="312" y="1115" type="curve" smooth="yes"/>
      <point x="423" y="1115"/>
      <point x="487" y="1200"/>
      <point x="487" y="1286" type="curve" smooth="yes"/>
      <point x="487" y="1369"/>
      <point x="425" y="1458"/>
      <point x="312" y="1458" type="curve" smooth="yes"/>
      <point x="200" y="1458"/>
      <point x="136" y="1370"/>
      <point x="136" y="1286" type="curve" smooth="yes"/>
      <point x="136" y="1199"/>
      <point x="201" y="1115"/>
    </contour>
  </outline>
</glyph>
<glyph name="k" format="1">
  <advance width="1275"/>
  <unicode hex="006B"/>
  <outline>
    <contour>
      <point x="188" y="0" type="line"/>
      <point x="468" y="0" type="line"/>
      <point x="468" y="426" type="line"/>
      <point x="874" y="0" type="line"/>
      <point x="1254" y="0" type="line"/>
      <point x="695" y="524" type="line"/>
      <point x="1198" y="996" type="line"/>
      <point x="826" y="996" type="line"/>
      <point x="468" y="616" type="line"/>
      <point x="468" y="1491" type="line"/>
      <point x="188" y="1491" type="line"/>
    </contour>
    <contour>
      <point x="632" y="0" type="move"/>
    </contour>
  </outline>
</glyph>
<glyph name="m" format="1">
  <advance width="1927"/>
  <unicode hex="006D"/>
  <outline>
    <contour>
      <point x="188" y="0" type="line"/>
      <point x="469" y="0" type="line"/>
      <point x="469" y="670" type="line"/>
      <point x="533" y="759"/>
      <point x="615" y="795"/>
      <point x="697" y="795" type="curve" smooth="yes"/>
      <point x="756" y="795"/>
      <point x="823" y="759"/>
      <point x="823" y="640" type="curve" smooth="yes"/>
      <point x="823" y="0" type="line"/>
      <point x="1103" y="0" type="line"/>
      <point x="1103" y="675" type="line"/>
      <point x="1158" y="739"/>
      <point x="1256" y="795"/>
      <point x="1346" y="795" type="curve" smooth="yes"/>
      <point x="1434" y="795"/>
      <point x="1468" y="710"/>
      <point x="1468" y="627" type="curve" smooth="yes"/>
      <point x="1468" y="0" type="line"/>
      <point x="1748" y="0" type="line"/>
      <point x="1748" y="647" type="line" smooth="yes"/>
      <point x="1748" y="904"/>
      <point x="1590" y="1016"/>
      <point x="1400" y="1016" type="curve" smooth="yes"/>
      <point x="1354" y="1016"/>
      <point x="1185" y="984"/>
      <point x="1046" y="831" type="curve"/>
      <point x="991" y="922"/>
      <point x="935" y="1015"/>
      <point x="801" y="1015" type="curve" smooth="yes"/>
      <point x="738" y="1015"/>
      <point x="563" y="982"/>
      <point x="465" y="825" type="curve"/>
      <point x="465" y="996" type="line"/>
      <point x="188" y="996" type="line"/>
    </contour>
  </outline>
</glyph>
<glyph name="q" format="1">
  <advance width="1253"/>
  <unicode hex="0071"/>
  <outline>
    <contour>
      <point x="798" y="-405" type="line"/>
      <point x="1078" y="-405" type="line"/>
      <point x="1078" y="996" type="line"/>
      <point x="798" y="996" type="line"/>
      <point x="798" y="910" type="line"/>
      <point x="740" y="974"/>
      <point x="637" y="1015"/>
      <point x="566" y="1015" type="curve" smooth="yes"/>
      <point x="305" y="1015"/>
      <point x="101" y="802"/>
      <point x="101" y="516" type="curve" smooth="yes"/>
      <point x="101" y="255"/>
      <point x="276" y="-21"/>
      <point x="638" y="-21" type="curve" smooth="yes"/>
      <point x="694" y="-21"/>
      <point x="761" y="-14"/>
      <point x="798" y="14" type="curve"/>
    </contour>
    <contour>
      <point x="672" y="215" type="curve" smooth="yes"/>
      <point x="503" y="215"/>
      <point x="395" y="374"/>
      <point x="395" y="506" type="curve" smooth="yes"/>
      <point x="395" y="671"/>
      <point x="508" y="760"/>
      <point x="627" y="760" type="curve" smooth="yes"/>
      <point x="678" y="760"/>
      <point x="737" y="747"/>
      <point x="798" y="715" type="curve"/>
      <point x="798" y="238" type="line"/>
      <point x="778" y="229"/>
      <point x="736" y="215"/>
    </contour>
  </outline>
</glyph>
<glyph name="r" format="1">
  <advance width="997"/>
  <unicode hex="0072"/>
  <outline>
    <contour>
      <point x="187" y="0" type="line"/>
      <point x="465" y="0" type="line"/>
      <point x="465" y="528" type="line" smooth="yes"/>
      <point x="465" y="609"/>
      <point x="550" y="745"/>
      <point x="676" y="745" type="curve" smooth="yes"/>
      <point x="721" y="745"/>
      <point x="771" y="719"/>
      <point x="828" y="646" type="curve"/>
      <point x="968" y="872" type="line"/>
      <point x="855" y="998"/>
      <point x="759" y="1015"/>
      <point x="691" y="1015" type="curve" smooth="yes"/>
      <point x="595" y="1015"/>
      <point x="510" y="868"/>
      <point x="465" y="740" type="curve"/>
      <point x="465" y="996" type="line"/>
      <point x="187" y="996" type="line"/>
    </contour>
    <contour>
      <point x="542" y="996" type="move"/>
    </contour>
    <contour>
      <point x="542" y="0" type="move"/>
    </contour>
  </outline>
</glyph>
<glyph name="s" format="1">
  <advance width="996"/>
  <unicode hex="0073"/>
  <outline>
    <contour>
      <point x="554" y="-19" type="curve" smooth="yes"/>
      <point x="779" y="-19"/>
      <point x="883" y="99"/>
      <point x="883" y="281" type="curve" smooth="yes"/>
      <point x="883" y="371"/>
      <point x="844" y="469"/>
      <point x="704" y="549" type="curve" smooth="yes"/>
      <point x="494" y="669" type="line" smooth="yes"/>
      <point x="454" y="692"/>
      <point x="425" y="715"/>
      <point x="425" y="748" type="curve" smooth="yes"/>
      <point x="426" y="788"/>
      <point x="459" y="816"/>
      <point x="531" y="816" type="curve" smooth="yes"/>
      <point x="594" y="816"/>
      <point x="685" y="794"/>
      <point x="809" y="738" type="curve"/>
      <point x="858" y="921" type="line"/>
      <point x="858" y="921"/>
      <point x="710" y="1017"/>
      <point x="516" y="1017" type="curve" smooth="yes"/>
      <point x="267" y="1017"/>
      <point x="147" y="882"/>
      <point x="147" y="724" type="curve" smooth="yes"/>
      <point x="147" y="628"/>
      <point x="187" y="547"/>
      <point x="330" y="467" type="curve" smooth="yes"/>
      <point x="568" y="331" type="line" smooth="yes"/>
      <point x="614" y="305"/>
      <point x="625" y="273"/>
      <point x="625" y="255" type="curve" smooth="yes"/>
      <point x="625" y="221"/>
      <point x="590" y="198"/>
      <point x="522" y="198" type="curve" smooth="yes"/>
      <point x="445" y="198"/>
      <point x="326" y="228"/>
      <point x="168" y="307" type="curve"/>
      <point x="141" y="96" type="line"/>
      <point x="141" y="96"/>
      <point x="300" y="-19"/>
    </contour>
    <contour>
      <point x="507" y="996" type="move"/>
    </contour>
  </outline>
</glyph>
<glyph name="y" format="1">
  <advance width="1274"/>
  <unicode hex="0079"/>
  <outline>
    <contour>
      <point x="279" y="-268" type="line"/>
      <point x="587" y="-268" type="line"/>
      <point x="1228" y="997" type="line"/>
      <point x="922" y="997" type="line"/>
      <point x="689" y="529" type="line"/>
      <point x="451" y="997" type="line"/>
      <point x="116" y="997" type="line"/>
      <point x="532" y="268" type="line"/>
    </contour>
    <contour>
      <point x="657" y="996" type="move"/>
    </contour>
  </outline>
</glyph>
<glyph name="braceleft" format="1">
  <advance width="740"/>
  <unicode hex="007B"/>
  <outline>
    <contour>
      <point x="650" y="-266" type="line" smooth="yes"/>
      <point x="450" y="-266"/>
      <point x="227" y="-170"/>
      <point x="227" y="78" type="curve" smooth="yes"/>
      <point x="227" y="451" type="line" smooth="yes"/>
      <point x="227" y="573"/>
      <point x="171" y="602"/>
      <point x="82" y="602" type="curve" smooth="yes"/>
      <point x="31" y="602" type="line"/>
      <point x="31" y="869" type="line"/>
      <point x="82" y="869" type="line" smooth="yes"/>
      <point x="171" y="869"/>
      <point x="227" y="897"/>
      <point x="227" y="1016" type="curve" smooth="yes"/>
      <point x="227" y="1374" type="line"/>
      <point x="226" y="1639"/>
      <point x="451" y="1737"/>
      <point x="650" y="1737" type="curve" smooth="yes"/>
      <point x="701" y="1737" type="line"/>
      <point x="701" y="1468" type="line"/>
      <point x="650" y="1468" type="line" smooth="yes"/>
      <point x="565" y="1468"/>
      <point x="506" y="1437"/>
      <point x="506" y="1306" type="curve" smooth="yes"/>
      <point x="506" y="942" type="line" smooth="yes"/>
      <point x="506" y="852"/>
      <point x="455" y="780"/>
      <point x="382" y="730" type="curve"/>
      <point x="456" y="680"/>
      <point x="506" y="609"/>
      <point x="506" y="519" type="curve" smooth="yes"/>
      <point x="506" y="154" type="line" smooth="yes"/>
      <point x="506" y="32"/>
      <point x="566" y="3"/>
      <point x="650" y="3" type="curve" smooth="yes"/>
      <point x="701" y="3" type="line"/>
      <point x="701" y="-266" type="line"/>
    </contour>
  </outline>
</glyph>
<glyph name="bar" format="1">
  <advance width="429"/>
  <unicode hex="007C"/>
  <outline>
    <contour>
      <point x="68" y="-129" type="line"/>
      <point x="362" y="-129" type="line"/>
      <point x="362" y="1645" type="line"/>
      <point x="68" y="1645" type="line"/>
    </contour>
  </outline>
</glyph>
<glyph name="yen" format="1">
  <advance width="1266"/>
  <unicode hex="00A5"/>
  <outline>
    <contour>
      <point x="478" y="0" type="line"/>
      <point x="788" y="0" type="line"/>
      <point x="788" y="360" type="line"/>
      <point x="1272" y="360" type="line"/>
      <point x="1272" y="547" type="line"/>
      <point x="788" y="547" type="line"/>
      <point x="788" y="726" type="line"/>
      <point x="1272" y="726" type="line"/>
      <point x="1272" y="914" type="line"/>
      <point x="884" y="914" type="line"/>
      <point x="1359" y="1516" type="line"/>
      <point x="1012" y="1516" type="line"/>
      <point x="631" y="994" type="line"/>
      <point x="266" y="1516" type="line"/>
      <point x="-98" y="1516" type="line"/>
      <point x="385" y="914" type="line"/>
      <point x="-10" y="914" type="line"/>
      <point x="-10" y="726" type="line"/>
      <point x="478" y="726" type="line"/>
      <point x="478" y="547" type="line"/>
      <point x="-10" y="547" type="line"/>
      <point x="-10" y="360" type="line"/>
      <point x="478" y="360" type="line"/>
    </contour>
  </outline>
</glyph>
<glyph name="copyright" format="1">
  <advance width="1814"/>
  <unicode hex="00A9"/>
  <outline>
    <contour>
      <point x="927" y="263" type="curve" smooth="yes"/>
      <point x="1007" y="263"/>
      <point x="1076" y="279"/>
      <point x="1179" y="316" type="curve"/>
      <point x="1179" y="483" type="line"/>
      <point x="1080" y="443"/>
      <point x="1012" y="426"/>
      <point x="946" y="426" type="curve" smooth="yes"/>
      <point x="740" y="426"/>
      <point x="671" y="591"/>
      <point x="671" y="715" type="curve" smooth="yes"/>
      <point x="671" y="836"/>
      <point x="741" y="1014"/>
      <point x="961" y="1014" type="curve" smooth="yes"/>
      <point x="1024" y="1014"/>
      <point x="1088" y="996"/>
      <point x="1179" y="954" type="curve"/>
      <point x="1179" y="1129" type="line"/>
      <point x="1085" y="1168"/>
      <point x="1023" y="1185"/>
      <point x="946" y="1185" type="curve" smooth="yes"/>
      <point x="631" y="1185"/>
      <point x="457" y="960"/>
      <point x="457" y="714" type="curve" smooth="yes"/>
      <point x="457" y="469"/>
      <point x="620" y="263"/>
    </contour>
    <contour>
      <point x="909" y="140" type="curve" smooth="yes"/>
      <point x="601" y="140"/>
      <point x="293" y="332"/>
      <point x="293" y="723" type="curve" smooth="yes"/>
      <point x="293" y="1115"/>
      <point x="601" y="1304"/>
      <point x="908" y="1304" type="curve" smooth="yes"/>
      <point x="1215" y="1304"/>
      <point x="1524" y="1113"/>
      <point x="1524" y="723" type="curve" smooth="yes"/>
      <point x="1524" y="330"/>
      <point x="1216" y="140"/>
    </contour>
    <contour>
      <point x="905" y="0" type="curve" smooth="yes"/>
      <point x="1287" y="0"/>
      <point x="1681" y="245"/>
      <point x="1681" y="724" type="curve" smooth="yes"/>
      <point x="1681" y="1205"/>
      <point x="1289" y="1446"/>
      <point x="908" y="1446" type="curve" smooth="yes"/>
      <point x="527" y="1446"/>
      <point x="133" y="1205"/>
      <point x="133" y="724" type="curve" smooth="yes"/>
      <point x="133" y="244"/>
      <point x="524" y="0"/>
    </contour>
  </outline>
</glyph>
<glyph name="guillemotleft" format="1">
  <advance width="768"/>
  <unicode hex="00AB"/>
  <outline>
    <contour>
      <point x="725" y="-31" type="line"/>
      <point x="725" y="305" type="line"/>
      <point x="319" y="507" type="line"/>
      <point x="725" y="758" type="line"/>
      <point x="725" y="1032" type="line"/>
      <point x="40" y="616" type="line"/>
      <point x="40" y="405" type="line"/>
    </contour>
  </outline>
</glyph>
<glyph name="logicalnot" format="1">
  <advance width="1188"/>
  <unicode hex="00AC"/>
  <outline>
    <contour>
      <point x="1046" y="305" type="line"/>
      <point x="1046" y="912" type="line"/>
      <point x="141" y="912" type="line"/>
      <point x="141" y="655" type="line"/>
      <point x="789" y="655" type="line"/>
      <point x="789" y="305" type="line"/>
    </contour>
  </outline>
</glyph>
<glyph name="plusminus" format="1">
  <advance width="1188"/>
  <unicode hex="00B1"/>
  <outline>
    <contour>
      <point x="141" y="0" type="line"/>
      <point x="1046" y="0" type="line"/>
      <point x="1046" y="209" type="line"/>
      <point x="141" y="209" type="line"/>
    </contour>
    <contour>
      <point x="471" y="325" type="line"/>
      <point x="722" y="325" type="line"/>
      <point x="722" y="655" type="line"/>
      <point x="1046" y="655" type="line"/>
      <point x="1046" y="877" type="line"/>
      <point x="722" y="877" type="line"/>
      <point x="722" y="1211" type="line"/>
      <point x="471" y="1211" type="line"/>
      <point x="471" y="877" type="line"/>
      <point x="141" y="877" type="line"/>
      <point x="141" y="655" type="line"/>
      <point x="471" y="655" type="line"/>
    </contour>
  </outline>
</glyph>
<glyph name="periodcentered" format="1">
  <advance width="640"/>
  <unicode hex="00B7"/>
  <outline>
    <contour>
      <point x="320.0" y="-120.0" type="curve" smooth="yes"/>
      <point x="405.0" y="-120.0"/>
      <point x="501.0" y="-60.0"/>
      <point x="501.0" y="59.0" type="curve" smooth="yes"/>
      <point x="501.0" y="177.0"/>
      <point x="408.0" y="243.0"/>
      <point x="320.0" y="243.0" type="curve" smooth="yes"/>
      <point x="232.0" y="243.0"/>
      <point x="139.0" y="179.0"/>
      <point x="139.0" y="59.0" type="curve" smooth="yes"/>
      <point x="139.0" y="-59.0"/>
      <point x="234.0" y="-120.0"/>
    </contour>
  </outline>
</glyph>
<glyph name="Agrave" format="1">
  <advance width="1527"/>
  <unicode hex="00C0"/>
  <outline>
    <contour>
      <point x="-16" y="0" type="line"/>
      <point x="292" y="0" type="line"/>
      <point x="494" y="437" type="line"/>
      <point x="1031" y="437" type="line"/>
      <point x="1244" y="0" type="line"/>
      <point x="1484" y="0" type="line"/>
      <point x="1526" y="42" type="line"/>
      <point x="851" y="1515" type="line"/>
      <point x="640" y="1515" type="line"/>
    </contour>
    <contour>
      <point x="892" y="1566" type="curve" smooth="yes"/>
      <point x="943" y="1566"/>
      <point x="951" y="1614"/>
      <point x="951" y="1631" type="curve" smooth="yes"/>
      <point x="951" y="1636"/>
      <point x="952" y="1649"/>
      <point x="946" y="1665" type="curve"/>
      <point x="861" y="2040" type="line"/>
      <point x="836" y="2120"/>
      <point x="779" y="2164"/>
      <point x="716" y="2164" type="curve" smooth="yes"/>
      <point x="646" y="2164"/>
      <point x="572" y="2110"/>
      <point x="572" y="2024" type="curve" smooth="yes"/>
      <point x="572" y="1986"/>
      <point x="587" y="1948"/>
      <point x="615" y="1912" type="curve"/>
      <point x="822" y="1609" type="line" smooth="yes"/>
      <point x="838" y="1585"/>
      <point x="861" y="1566"/>
    </contour>
    <contour>
      <point x="606" y="713" type="line"/>
      <point x="753" y="1121" type="line"/>
      <point x="913" y="713" type="line"/>
    </contour>
  </outline>
</glyph>
<glyph name="Atilde" format="1">
  <advance width="1527"/>
  <unicode hex="00C3"/>
  <outline>
    <contour>
      <point x="880" y="1566" type="curve" smooth="yes"/>
      <point x="1003" y="1566"/>
      <point x="1087" y="1641"/>
      <point x="1149" y="1734" type="curve" smooth="yes"/>
      <point x="1156" y="1744"/>
      <point x="1162" y="1757"/>
      <point x="1162" y="1777" type="curve" smooth="yes"/>
      <point x="1162" y="1807"/>
      <point x="1133" y="1841"/>
      <point x="1099" y="1841" type="curve" smooth="yes"/>
      <point x="1022" y="1841"/>
      <point x="1031" y="1796"/>
      <point x="992" y="1796" type="curve" smooth="yes"/>
      <point x="935" y="1796"/>
      <point x="770" y="1884"/>
      <point x="626" y="1884" type="curve" smooth="yes"/>
      <point x="509" y="1884"/>
      <point x="434" y="1808"/>
      <point x="379" y="1717" type="curve"/>
      <point x="372" y="1707"/>
      <point x="364" y="1685"/>
      <point x="364" y="1673" type="curve" smooth="yes"/>
      <point x="364" y="1636"/>
      <point x="395" y="1609"/>
      <point x="429" y="1609" type="curve" smooth="yes"/>
      <point x="501" y="1609"/>
      <point x="501" y="1654"/>
      <point x="534" y="1654" type="curve" smooth="yes"/>
      <point x="625" y="1654"/>
      <point x="762" y="1566"/>
    </contour>
    <contour>
      <point x="-16" y="0" type="line"/>
      <point x="292" y="0" type="line"/>
      <point x="494" y="437" type="line"/>
      <point x="1031" y="437" type="line"/>
      <point x="1244" y="0" type="line"/>
      <point x="1484" y="0" type="line"/>
      <point x="1526" y="42" type="line"/>
      <point x="851" y="1515" type="line"/>
      <point x="640" y="1515" type="line"/>
    </contour>
    <contour>
      <point x="606" y="713" type="line"/>
      <point x="753" y="1121" type="line"/>
      <point x="913" y="713" type="line"/>
    </contour>
  </outline>
</glyph>
<glyph name="Adieresis" format="1">
  <advance width="1527"/>
  <unicode hex="00C4"/>
  <outline>
    <contour>
      <point x="-16" y="0" type="line"/>
      <point x="292" y="0" type="line"/>
      <point x="494" y="436" type="line"/>
      <point x="1031" y="436" type="line"/>
      <point x="1244" y="0" type="line"/>
      <point x="1478" y="0" type="line"/>
      <point x="1530" y="34" type="line"/>
      <point x="851" y="1516" type="line"/>
      <point x="640" y="1516" type="line"/>
    </contour>
    <contour>
      <point x="574" y="1565" type="curve" smooth="yes"/>
      <point x="653" y="1565"/>
      <point x="743" y="1621"/>
      <point x="743" y="1730" type="curve" smooth="yes"/>
      <point x="743" y="1839"/>
      <point x="656" y="1901"/>
      <point x="574" y="1901" type="curve" smooth="yes"/>
      <point x="492" y="1901"/>
      <point x="407" y="1838"/>
      <point x="407" y="1730" type="curve" smooth="yes"/>
      <point x="407" y="1623"/>
      <point x="494" y="1565"/>
    </contour>
    <contour>
      <point x="950" y="1565" type="curve" smooth="yes"/>
      <point x="1030" y="1565"/>
      <point x="1118" y="1622"/>
      <point x="1118" y="1730" type="curve" smooth="yes"/>
      <point x="1118" y="1838"/>
      <point x="1033" y="1901"/>
      <point x="950" y="1901" type="curve" smooth="yes"/>
      <point x="869" y="1901"/>
      <point x="782" y="1839"/>
      <point x="782" y="1730" type="curve" smooth="yes"/>
      <point x="782" y="1622"/>
      <point x="872" y="1565"/>
    </contour>
    <contour>
      <point x="606" y="712" type="line"/>
      <point x="753" y="1120" type="line"/>
      <point x="913" y="712" type="line"/>
    </contour>
  </outline>
</glyph>
<glyph name="Aring" format="1">
  <advance width="1527"/>
  <unicode hex="00C5"/>
  <outline>
    <contour>
      <point x="-16" y="0" type="line"/>
      <point x="292" y="0" type="line"/>
      <point x="494" y="436" type="line"/>
      <point x="1031" y="436" type="line"/>
      <point x="1244" y="0" type="line"/>
      <point x="1484" y="0" type="line"/>
      <point x="1526" y="42" type="line"/>
      <point x="887" y="1446" type="line"/>
      <point x="970" y="1483"/>
      <point x="1036" y="1560"/>
      <point x="1036" y="1670" type="curve" smooth="yes"/>
      <point x="1036" y="1849"/>
      <point x="887" y="1938"/>
      <point x="749" y="1938" type="curve" smooth="yes"/>
      <point x="611" y="1938"/>
      <point x="459" y="1850"/>
      <point x="459" y="1672" type="curve" smooth="yes"/>
      <point x="459" y="1564"/>
      <point x="522" y="1487"/>
      <point x="606" y="1448" type="curve"/>
    </contour>
    <contour>
      <point x="749" y="1606" type="curve" smooth="yes"/>
      <point x="706" y="1606"/>
      <point x="673" y="1631"/>
      <point x="673" y="1670" type="curve" smooth="yes"/>
      <point x="673" y="1711"/>
      <point x="704" y="1734"/>
      <point x="748" y="1734" type="curve" smooth="yes"/>
      <point x="790" y="1734"/>
      <point x="819" y="1713"/>
      <point x="819" y="1670" type="curve" smooth="yes"/>
      <point x="819" y="1628"/>
      <point x="790" y="1606"/>
    </contour>
    <contour>
      <point x="606" y="713" type="line"/>
      <point x="753" y="1121" type="line"/>
      <point x="913" y="713" type="line"/>
    </contour>
  </outline>
</glyph>
<glyph name="Ecircumflex" format="1">
  <advance width="1060"/>
  <unicode hex="00CA"/>
  <outline>
    <contour>
      <point x="225" y="1613" type="curve" smooth="yes"/>
      <point x="208" y="1613"/>
      <point x="188" y="1623"/>
      <point x="188" y="1671" type="curve" smooth="yes"/>
      <point x="188" y="1671"/>
      <point x="192" y="1695"/>
      <point x="213" y="1721" type="curve"/>
      <point x="465" y="2110" type="line"/>
      <point x="486" y="2138"/>
      <point x="515" y="2147"/>
      <point x="545" y="2147" type="curve" smooth="yes"/>
      <point x="570" y="2147"/>
      <point x="604" y="2142"/>
      <point x="625" y="2109" type="curve" smooth="yes"/>
      <point x="897" y="1689" type="line"/>
      <point x="897" y="1671" type="line" smooth="yes"/>
      <point x="897" y="1620"/>
      <point x="860" y="1618"/>
      <point x="846" y="1618" type="curve" smooth="yes"/>
      <point x="843" y="1618" type="line"/>
      <point x="843" y="1618"/>
      <point x="831" y="1618"/>
      <point x="816" y="1625" type="curve"/>
      <point x="545" y="1814" type="line"/>
      <point x="280" y="1630" type="line"/>
      <point x="246" y="1618" type="line"/>
      <point x="246" y="1618"/>
      <point x="236" y="1613"/>
    </contour>
    <contour>
      <point x="77" y="0" type="line"/>
      <point x="77" y="1516" type="line"/>
      <point x="1011" y="1516" type="line"/>
      <point x="1011" y="1237" type="line"/>
      <point x="370" y="1237" type="line"/>
      <point x="370" y="907" type="line"/>
      <point x="997" y="907" type="line"/>
      <point x="997" y="631" type="line"/>
      <point x="370" y="631" type="line"/>
      <point x="370" y="279" type="line"/>
      <point x="1024" y="279" type="line"/>
      <point x="1024" y="0" type="line"/>
    </contour>
  </outline>
</glyph>
<glyph name="Edieresis" format="1">
  <advance width="1060"/>
  <unicode hex="00CB"/>
  <outline>
    <contour>
      <point x="77" y="0" type="line"/>
      <point x="1024" y="0" type="line"/>
      <point x="1024" y="277" type="line"/>
      <point x="370" y="277" type="line"/>
      <point x="370" y="631" type="line"/>
      <point x="997" y="631" type="line"/>
      <point x="997" y="908" type="line"/>
      <point x="370" y="908" type="line"/>
      <point x="370" y="1236" type="line"/>
      <point x="1011" y="1236" type="line"/>
      <point x="1011" y="1516" type="line"/>
      <point x="77" y="1516" type="line"/>
    </contour>
    <contour>
      <point x="355" y="1565" type="curve" smooth="yes"/>
      <point x="435" y="1565"/>
      <point x="525" y="1621"/>
      <point x="525" y="1730" type="curve" smooth="yes"/>
      <point x="525" y="1839"/>
      <point x="438" y="1901"/>
      <point x="355" y="1901" type="curve" smooth="yes"/>
      <point x="273" y="1901"/>
      <point x="187" y="1838"/>
      <point x="187" y="1730" type="curve" smooth="yes"/>
      <point x="187" y="1622"/>
      <point x="276" y="1565"/>
    </contour>
    <contour>
      <point x="733" y="1565" type="curve" smooth="yes"/>
      <point x="812" y="1565"/>
      <point x="901" y="1621"/>
      <point x="901" y="1730" type="curve" smooth="yes"/>
      <point x="901" y="1838"/>
      <point x="815" y="1901"/>
      <point x="733" y="1901" type="curve" smooth="yes"/>
      <point x="651" y="1901"/>
      <point x="563" y="1839"/>
      <point x="563" y="1730" type="curve" smooth="yes"/>
      <point x="563" y="1622"/>
      <point x="653" y="1565"/>
    </contour>
  </outline>
</glyph>
<glyph name="Igrave" format="1">
  <advance width="429"/>
  <unicode hex="00CC"/>
  <outline>
    <contour>
      <point x="344" y="1566" type="curve" smooth="yes"/>
      <point x="396" y="1566"/>
      <point x="403" y="1619"/>
      <point x="403" y="1631" type="curve" smooth="yes"/>
      <point x="403" y="1637"/>
      <point x="403" y="1646"/>
      <point x="399" y="1663" type="curve" smooth="yes"/>
      <point x="313" y="2040" type="line"/>
      <point x="289" y="2120"/>
      <point x="231" y="2164"/>
      <point x="169" y="2164" type="curve" smooth="yes"/>
      <point x="98" y="2164"/>
      <point x="25" y="2110"/>
      <point x="25" y="2024" type="curve" smooth="yes"/>
      <point x="25" y="1986"/>
      <point x="39" y="1949"/>
      <point x="67" y="1913" type="curve"/>
      <point x="275" y="1609" type="line" smooth="yes"/>
      <point x="291" y="1586"/>
      <point x="312" y="1566"/>
    </contour>
    <contour>
      <point x="68" y="0" type="line"/>
      <point x="363" y="0" type="line"/>
      <point x="363" y="1515" type="line"/>
      <point x="68" y="1515" type="line"/>
    </contour>
  </outline>
</glyph>
<glyph name="Iacute" format="1">
  <advance width="429"/>
  <unicode hex="00CD"/>
  <outline>
    <contour>
      <point x="80" y="1566" type="curve" smooth="yes"/>
      <point x="116" y="1566"/>
      <point x="130" y="1585"/>
      <point x="146" y="1609" type="curve"/>
      <point x="366" y="1898" type="line" smooth="yes"/>
      <point x="394" y="1936"/>
      <point x="410" y="1975"/>
      <point x="410" y="2014" type="curve" smooth="yes"/>
      <point x="410" y="2100"/>
      <point x="336" y="2152"/>
      <point x="268" y="2152" type="curve" smooth="yes"/>
      <point x="204" y="2152"/>
      <point x="144" y="2110"/>
      <point x="121" y="2028" type="curve"/>
      <point x="24" y="1666" type="line" smooth="yes"/>
      <point x="20" y="1653"/>
      <point x="19" y="1643"/>
      <point x="19" y="1632" type="curve" smooth="yes"/>
      <point x="19" y="1617"/>
      <point x="30" y="1566"/>
    </contour>
    <contour>
      <point x="68" y="0" type="line"/>
      <point x="362" y="0" type="line"/>
      <point x="362" y="1515" type="line"/>
      <point x="68" y="1515" type="line"/>
    </contour>
  </outline>
</glyph>
<glyph name="Icircumflex" format="1">
  <advance width="429"/>
  <unicode hex="00CE"/>
  <outline>
    <contour>
      <point x="-89" y="1567" type="line" smooth="yes"/>
      <point x="-103" y="1567"/>
      <point x="-139" y="1571"/>
      <point x="-139" y="1620" type="curve" smooth="yes"/>
      <point x="-139" y="1621"/>
      <point x="-141" y="1626"/>
      <point x="-133" y="1645" type="curve"/>
      <point x="138" y="2062" type="line"/>
      <point x="156" y="2080"/>
      <point x="181" y="2096"/>
      <point x="215" y="2096" type="curve" smooth="yes"/>
      <point x="245" y="2096"/>
      <point x="272" y="2087"/>
      <point x="295" y="2061" type="curve"/>
      <point x="569" y="1638" type="line"/>
      <point x="569" y="1620" type="line" smooth="yes"/>
      <point x="569" y="1589"/>
      <point x="547" y="1567"/>
      <point x="516" y="1567" type="curve" smooth="yes"/>
      <point x="509" y="1567"/>
      <point x="494" y="1571"/>
      <point x="488" y="1573" type="curve"/>
      <point x="215" y="1763" type="line"/>
      <point x="-57" y="1573" type="line"/>
      <point x="-64" y="1571"/>
      <point x="-71" y="1567"/>
      <point x="-84" y="1567" type="curve" smooth="yes"/>
    </contour>
    <contour>
      <point x="68" y="0" type="line"/>
      <point x="68" y="1516" type="line"/>
      <point x="362" y="1516" type="line"/>
      <point x="362" y="0" type="line"/>
    </contour>
  </outline>
</glyph>
<glyph name="Idieresis" format="1">
  <advance width="429"/>
  <unicode hex="00CF"/>
  <outline>
    <contour>
      <point x="26" y="1565" type="curve" smooth="yes"/>
      <point x="105" y="1565"/>
      <point x="195" y="1621"/>
      <point x="195" y="1730" type="curve" smooth="yes"/>
      <point x="195" y="1839"/>
      <point x="108" y="1901"/>
      <point x="26" y="1901" type="curve" smooth="yes"/>
      <point x="-56" y="1901"/>
      <point x="-141" y="1838"/>
      <point x="-141" y="1730" type="curve" smooth="yes"/>
      <point x="-141" y="1623"/>
      <point x="-54" y="1565"/>
    </contour>
    <contour>
      <point x="68" y="0" type="line"/>
      <point x="362" y="0" type="line"/>
      <point x="362" y="1516" type="line"/>
      <point x="68" y="1516" type="line"/>
    </contour>
    <contour>
      <point x="403" y="1565" type="curve" smooth="yes"/>
      <point x="482" y="1565"/>
      <point x="570" y="1622"/>
      <point x="570" y="1730" type="curve" smooth="yes"/>
      <point x="570" y="1838"/>
      <point x="485" y="1901"/>
      <point x="403" y="1901" type="curve" smooth="yes"/>
      <point x="321" y="1901"/>
      <point x="234" y="1839"/>
      <point x="234" y="1730" type="curve" smooth="yes"/>
      <point x="234" y="1622"/>
      <point x="324" y="1565"/>
    </contour>
  </outline>
</glyph>
<glyph name="Oacute" format="1">
  <advance width="1757"/>
  <unicode hex="00D3"/>
  <outline>
    <contour>
      <point x="739" y="1566" type="curve" smooth="yes"/>
      <point x="774" y="1566"/>
      <point x="793" y="1589"/>
      <point x="807" y="1611" type="curve"/>
      <point x="1025" y="1899" type="line" smooth="yes"/>
      <point x="1053" y="1935"/>
      <point x="1071" y="1974"/>
      <point x="1071" y="2015" type="curve" smooth="yes"/>
      <point x="1071" y="2101"/>
      <point x="997" y="2153"/>
      <point x="929" y="2153" type="curve" smooth="yes"/>
      <point x="865" y="2153"/>
      <point x="806" y="2110"/>
      <point x="781" y="2029" type="curve"/>
      <point x="685" y="1666" type="line" smooth="yes"/>
      <point x="682" y="1653"/>
      <point x="680" y="1643"/>
      <point x="680" y="1632" type="curve" smooth="yes"/>
      <point x="680" y="1623"/>
      <point x="683" y="1566"/>
    </contour>
    <contour>
      <point x="877" y="264" type="curve" smooth="yes"/>
      <point x="592" y="264"/>
      <point x="356" y="484"/>
      <point x="356" y="759" type="curve" smooth="yes"/>
      <point x="356" y="1033"/>
      <point x="592" y="1254"/>
      <point x="877" y="1254" type="curve" smooth="yes"/>
      <point x="1162" y="1254"/>
      <point x="1400" y="1033"/>
      <point x="1400" y="759" type="curve" smooth="yes"/>
      <point x="1400" y="484"/>
      <point x="1162" y="264"/>
    </contour>
    <contour>
      <point x="877" y="-20" type="curve" smooth="yes"/>
      <point x="1330" y="-20"/>
      <point x="1701" y="330"/>
      <point x="1701" y="759" type="curve" smooth="yes"/>
      <point x="1701" y="1188"/>
      <point x="1329" y="1536"/>
      <point x="877" y="1536" type="curve" smooth="yes"/>
      <point x="424" y="1536"/>
      <point x="54" y="1188"/>
      <point x="54" y="759" type="curve" smooth="yes"/>
      <point x="54" y="330"/>
      <point x="423" y="-20"/>
    </contour>
  </outline>
</glyph>
<glyph name="Otilde" format="1">
  <advance width="1757"/>
  <unicode hex="00D5"/>
  <outline>
    <contour>
      <point x="992" y="1567" type="curve" smooth="yes"/>
      <point x="1116" y="1567"/>
      <point x="1199" y="1642"/>
      <point x="1262" y="1734" type="curve" smooth="yes"/>
      <point x="1270" y="1745"/>
      <point x="1275" y="1754"/>
      <point x="1275" y="1778" type="curve" smooth="yes"/>
      <point x="1275" y="1808"/>
      <point x="1246" y="1842"/>
      <point x="1212" y="1842" type="curve" smooth="yes"/>
      <point x="1133" y="1842"/>
      <point x="1143" y="1795"/>
      <point x="1105" y="1795" type="curve" smooth="yes"/>
      <point x="1048" y="1795"/>
      <point x="883" y="1885"/>
      <point x="737" y="1885" type="curve" smooth="yes"/>
      <point x="620" y="1885"/>
      <point x="546" y="1808"/>
      <point x="491" y="1717" type="curve" smooth="yes"/>
      <point x="486" y="1709"/>
      <point x="476" y="1696"/>
      <point x="476" y="1674" type="curve" smooth="yes"/>
      <point x="476" y="1632"/>
      <point x="513" y="1609"/>
      <point x="542" y="1609" type="curve" smooth="yes"/>
      <point x="615" y="1609"/>
      <point x="613" y="1654"/>
      <point x="646" y="1654" type="curve" smooth="yes"/>
      <point x="739" y="1654"/>
      <point x="875" y="1567"/>
    </contour>
    <contour>
      <point x="877" y="265" type="curve" smooth="yes"/>
      <point x="592" y="265"/>
      <point x="356" y="486"/>
      <point x="356" y="760" type="curve" smooth="yes"/>
      <point x="356" y="1034"/>
      <point x="592" y="1254"/>
      <point x="877" y="1254" type="curve" smooth="yes"/>
      <point x="1162" y="1254"/>
      <point x="1400" y="1034"/>
      <point x="1400" y="760" type="curve" smooth="yes"/>
      <point x="1400" y="486"/>
      <point x="1162" y="265"/>
    </contour>
    <contour>
      <point x="877" y="-18" type="curve" smooth="yes"/>
      <point x="1329" y="-18"/>
      <point x="1701" y="330"/>
      <point x="1701" y="760" type="curve" smooth="yes"/>
      <point x="1701" y="1188"/>
      <point x="1329" y="1537"/>
      <point x="877" y="1537" type="curve" smooth="yes"/>
      <point x="424" y="1537"/>
      <point x="54" y="1188"/>
      <point x="54" y="760" type="curve" smooth="yes"/>
      <point x="54" y="330"/>
      <point x="424" y="-18"/>
    </contour>
  </outline>
</glyph>
<glyph name="Ugrave" format="1">
  <advance width="1486"/>
  <unicode hex="00D9"/>
  <outline>
    <contour>
      <point x="744" y="-21" type="curve" smooth="yes"/>
      <point x="1071" y="-21"/>
      <point x="1407" y="185"/>
      <point x="1407" y="596" type="curve" smooth="yes"/>
      <point x="1407" y="1514" type="line"/>
      <point x="1113" y="1514" type="line"/>
      <point x="1113" y="614" type="line" smooth="yes"/>
      <point x="1113" y="371"/>
      <point x="929" y="255"/>
      <point x="741" y="255" type="curve" smooth="yes"/>
      <point x="553" y="255"/>
      <point x="372" y="370"/>
      <point x="372" y="614" type="curve" smooth="yes"/>
      <point x="372" y="1514" type="line"/>
      <point x="78" y="1514" type="line"/>
      <point x="78" y="594" type="line" smooth="yes"/>
      <point x="78" y="185"/>
      <point x="417" y="-21"/>
    </contour>
    <contour>
      <point x="872" y="1565" type="curve" smooth="yes"/>
      <point x="923" y="1565"/>
      <point x="931" y="1613"/>
      <point x="931" y="1630" type="curve" smooth="yes"/>
      <point x="931" y="1635"/>
      <point x="932" y="1645"/>
      <point x="926" y="1664" type="curve"/>
      <point x="841" y="2040" type="line"/>
      <point x="816" y="2118"/>
      <point x="760" y="2164"/>
      <point x="697" y="2164" type="curve" smooth="yes"/>
      <point x="625" y="2164"/>
      <point x="554" y="2107"/>
      <point x="554" y="2023" type="curve" smooth="yes"/>
      <point x="554" y="1987"/>
      <point x="566" y="1950"/>
      <point x="595" y="1913" type="curve"/>
      <point x="804" y="1605" type="line" smooth="yes"/>
      <point x="819" y="1583"/>
      <point x="841" y="1565"/>
    </contour>
  </outline>
</glyph>
<glyph name="Yacute" format="1">
  <advance width="1266"/>
  <unicode hex="00DD"/>
  <outline>
    <contour>
      <point x="478" y="0" type="line"/>
      <point x="788" y="0" type="line"/>
      <point x="788" y="780" type="line"/>
      <point x="1359" y="1515" type="line"/>
      <point x="1012" y="1515" type="line"/>
      <point x="631" y="993" type="line"/>
      <point x="266" y="1515" type="line"/>
      <point x="-98" y="1515" type="line"/>
      <point x="478" y="786" type="line"/>
    </contour>
    <contour>
      <point x="496" y="1566" type="curve" smooth="yes"/>
      <point x="532" y="1566"/>
      <point x="546" y="1585"/>
      <point x="562" y="1609" type="curve"/>
      <point x="782" y="1898" type="line" smooth="yes"/>
      <point x="810" y="1936"/>
      <point x="826" y="1975"/>
      <point x="826" y="2014" type="curve" smooth="yes"/>
      <point x="826" y="2100"/>
      <point x="752" y="2152"/>
      <point x="684" y="2152" type="curve" smooth="yes"/>
      <point x="620" y="2152"/>
      <point x="560" y="2110"/>
      <point x="537" y="2028" type="curve"/>
      <point x="440" y="1666" type="line" smooth="yes"/>
      <point x="436" y="1653"/>
      <point x="435" y="1643"/>
      <point x="435" y="1632" type="curve" smooth="yes"/>
      <point x="435" y="1617"/>
      <point x="446" y="1566"/>
    </contour>
  </outline>
</glyph>
<glyph name="Thorn" format="1">
  <advance width="1039"/>
  <unicode hex="00DE"/>
  <outline>
    <contour>
      <point x="358" y="1269" type="line"/>
      <point x="451" y="1269" type="line" smooth="yes"/>
      <point x="746" y="1269"/>
      <point x="1006" y="1142"/>
      <point x="1006" y="830" type="curve" smooth="yes"/>
      <point x="1006" y="555"/>
      <point x="815" y="358"/>
      <point x="401" y="358" type="curve" smooth="yes"/>
      <point x="357" y="358" type="line"/>
      <point x="357" y="0" type="line"/>
      <point x="49" y="0" type="line"/>
      <point x="49" y="1553" type="line"/>
      <point x="358" y="1553" type="line"/>
    </contour>
    <contour>
      <point x="693" y="838" type="curve" smooth="yes"/>
      <point x="693" y="940"/>
      <point x="673" y="1033"/>
      <point x="430" y="1033" type="curve" smooth="yes"/>
      <point x="359" y="1033" type="line"/>
      <point x="359" y="637" type="line"/>
      <point x="580" y="641"/>
      <point x="693" y="670"/>
    </contour>
  </outline>
</glyph>
<glyph name="agrave" format="1">
  <advance width="958"/>
  <unicode hex="00E0"/>
  <outline>
    <contour>
      <point x="830" y="-29" type="line"/>
      <point x="791" y="-10" type="line" smooth="yes"/>
      <point x="742" y="14"/>
      <point x="679" y="52"/>
      <point x="631" y="103" type="curve"/>
      <point x="549" y="14"/>
      <point x="435" y="-21"/>
      <point x="354" y="-21" type="curve" smooth="yes"/>
      <point x="190" y="-21"/>
      <point x="35" y="53"/>
      <point x="35" y="246" type="curve" smooth="yes"/>
      <point x="35" y="373"/>
      <point x="162" y="488"/>
      <point x="425" y="549" type="curve"/>
      <point x="552" y="577" type="line"/>
      <point x="552" y="594" type="line" smooth="yes"/>
      <point x="552" y="696"/>
      <point x="507" y="739"/>
      <point x="433" y="739" type="curve" smooth="yes"/>
      <point x="337" y="739"/>
      <point x="252" y="695"/>
      <point x="191" y="636" type="curve" smooth="yes"/>
      <point x="132" y="580" type="line"/>
      <point x="46" y="840" type="line"/>
      <point x="67" y="862" type="line" smooth="yes"/>
      <point x="118" y="917"/>
      <point x="269" y="1007"/>
      <point x="429" y="1007" type="curve" smooth="yes"/>
      <point x="609" y="1007"/>
      <point x="831" y="919"/>
      <point x="831" y="675" type="curve" smooth="yes"/>
      <point x="831" y="302" type="line" smooth="yes"/>
      <point x="831" y="230"/>
      <point x="843" y="245"/>
      <point x="935" y="201" type="curve" smooth="yes"/>
      <point x="986" y="177" type="line"/>
    </contour>
    <contour>
      <point x="628" y="1045" type="curve" smooth="yes"/>
      <point x="591" y="1045"/>
      <point x="572" y="1069"/>
      <point x="560" y="1087" type="curve" smooth="yes"/>
      <point x="351" y="1393" type="line"/>
      <point x="322" y="1431"/>
      <point x="310" y="1468"/>
      <point x="310" y="1504" type="curve" smooth="yes"/>
      <point x="310" y="1588"/>
      <point x="381" y="1644"/>
      <point x="453" y="1644" type="curve" smooth="yes"/>
      <point x="516" y="1644"/>
      <point x="572" y="1599"/>
      <point x="597" y="1522" type="curve"/>
      <point x="682" y="1145" type="line"/>
      <point x="688" y="1129"/>
      <point x="687" y="1116"/>
      <point x="687" y="1111" type="curve" smooth="yes"/>
      <point x="687" y="1100"/>
      <point x="687" y="1045"/>
    </contour>
    <contour>
      <point x="381" y="168" type="curve" smooth="yes"/>
      <point x="428" y="168"/>
      <point x="503" y="194"/>
      <point x="551" y="242" type="curve"/>
      <point x="551" y="391" type="line"/>
      <point x="419" y="351"/>
      <point x="326" y="309"/>
      <point x="326" y="245" type="curve" smooth="yes"/>
      <point x="326" y="204"/>
      <point x="336" y="186"/>
      <point x="344" y="178" type="curve" smooth="yes"/>
      <point x="351" y="171"/>
      <point x="364" y="168"/>
    </contour>
  </outline>
</glyph>
<glyph name="ae" format="1">
  <advance width="1528"/>
  <unicode hex="00E6"/>
  <outline>
    <contour>
      <point x="355" y="-19" type="curve" smooth="yes"/>
      <point x="190" y="-19"/>
      <point x="36" y="56"/>
      <point x="36" y="247" type="curve" smooth="yes"/>
      <point x="36" y="375"/>
      <point x="163" y="490"/>
      <point x="425" y="551" type="curve" smooth="yes"/>
      <point x="553" y="580" type="line"/>
      <point x="553" y="596" type="line" smooth="yes"/>
      <point x="553" y="697"/>
      <point x="509" y="741"/>
      <point x="434" y="741" type="curve" smooth="yes"/>
      <point x="338" y="741"/>
      <point x="254" y="698"/>
      <point x="191" y="639" type="curve" smooth="yes"/>
      <point x="133" y="585" type="line"/>
      <point x="47" y="841" type="line"/>
      <point x="68" y="863" type="line" smooth="yes"/>
      <point x="119" y="918"/>
      <point x="270" y="1008"/>
      <point x="431" y="1008" type="curve" smooth="yes"/>
      <point x="528" y="1008"/>
      <point x="651" y="968"/>
      <point x="722" y="870" type="curve"/>
      <point x="804" y="968"/>
      <point x="923" y="1017"/>
      <point x="1048" y="1017" type="curve" smooth="yes"/>
      <point x="1309" y="1017"/>
      <point x="1463" y="788"/>
      <point x="1463" y="519" type="curve" smooth="yes"/>
      <point x="1463" y="447" type="line"/>
      <point x="835" y="447" type="line"/>
      <point x="856" y="299"/>
      <point x="969" y="236"/>
      <point x="1103" y="236" type="curve" smooth="yes"/>
      <point x="1177" y="236"/>
      <point x="1264" y="265"/>
      <point x="1341" y="322" type="curve" smooth="yes"/>
      <point x="1422" y="382" type="line"/>
      <point x="1422" y="98" type="line"/>
      <point x="1401" y="83" type="line" smooth="yes"/>
      <point x="1308" y="15"/>
      <point x="1200" y="-17"/>
      <point x="1094" y="-17" type="curve" smooth="yes"/>
      <point x="948" y="-17"/>
      <point x="805" y="45"/>
      <point x="711" y="152" type="curve"/>
      <point x="633" y="68"/>
      <point x="494" y="-19"/>
    </contour>
    <contour>
      <point x="385" y="218" type="curve" smooth="yes"/>
      <point x="452" y="218"/>
      <point x="551" y="276"/>
      <point x="601" y="337" type="curve"/>
      <point x="589" y="375"/>
      <point x="581" y="415"/>
      <point x="574" y="452" type="curve"/>
      <point x="434" y="410"/>
      <point x="327" y="367"/>
      <point x="327" y="296" type="curve" smooth="yes"/>
      <point x="327" y="225"/>
      <point x="351" y="218"/>
    </contour>
    <contour>
      <point x="852" y="669" type="curve"/>
      <point x="1193" y="669" type="line"/>
      <point x="1175" y="731"/>
      <point x="1115" y="765"/>
      <point x="1048" y="765" type="curve" smooth="yes"/>
      <point x="948" y="765"/>
      <point x="884" y="728"/>
    </contour>
    <contour>
      <point x="764" y="996" type="move"/>
    </contour>
  </outline>
</glyph>
<glyph name="egrave" format="1">
  <advance width="1051"/>
  <unicode hex="00E8"/>
  <outline>
    <contour>
      <point x="615" y="-20" type="curve" smooth="yes"/>
      <point x="265" y="-20"/>
      <point x="29" y="200"/>
      <point x="29" y="512" type="curve" smooth="yes"/>
      <point x="29" y="781"/>
      <point x="236" y="1014"/>
      <point x="532" y="1014" type="curve" smooth="yes"/>
      <point x="847" y="1014"/>
      <point x="997" y="796"/>
      <point x="997" y="518" type="curve" smooth="yes"/>
      <point x="997" y="446" type="line"/>
      <point x="326" y="446" type="line"/>
      <point x="346" y="314"/>
      <point x="447" y="231"/>
      <point x="614" y="231" type="curve" smooth="yes"/>
      <point x="713" y="231"/>
      <point x="808" y="261"/>
      <point x="900" y="321" type="curve" smooth="yes"/>
      <point x="979" y="372" type="line"/>
      <point x="979" y="95" type="line"/>
      <point x="956" y="80" type="line" smooth="yes"/>
      <point x="856" y="13"/>
      <point x="742" y="-20"/>
    </contour>
    <contour>
      <point x="642" y="1045" type="curve" smooth="yes"/>
      <point x="605" y="1045"/>
      <point x="587" y="1068"/>
      <point x="574" y="1087" type="curve" smooth="yes"/>
      <point x="364" y="1394" type="line"/>
      <point x="338" y="1430"/>
      <point x="324" y="1465"/>
      <point x="324" y="1504" type="curve" smooth="yes"/>
      <point x="324" y="1588"/>
      <point x="396" y="1644"/>
      <point x="467" y="1644" type="curve" smooth="yes"/>
      <point x="531" y="1644"/>
      <point x="588" y="1599"/>
      <point x="612" y="1520" type="curve"/>
      <point x="699" y="1142" type="line" smooth="yes"/>
      <point x="702" y="1129"/>
      <point x="702" y="1116"/>
      <point x="702" y="1110" type="curve" smooth="yes"/>
      <point x="702" y="1099"/>
      <point x="697" y="1045"/>
    </contour>
    <contour>
      <point x="344" y="669" type="curve"/>
      <point x="726" y="669" type="line"/>
      <point x="705" y="726"/>
      <point x="634" y="764"/>
      <point x="538" y="764" type="curve" smooth="yes"/>
      <point x="440" y="764"/>
      <point x="376" y="727"/>
    </contour>
  </outline>
</glyph>
<glyph name="eacute" format="1">
  <advance width="1094"/>
  <unicode hex="00E9"/>
  <outline>
    <contour>
      <point x="626" y="-19" type="curve" smooth="yes"/>
      <point x="849" y="-19"/>
      <point x="1009" y="76"/>
      <point x="1009" y="76" type="curve"/>
      <point x="1009" y="325" type="line"/>
      <point x="1009" y="325"/>
      <point x="834" y="212"/>
      <point x="631" y="212" type="curve" smooth="yes"/>
      <point x="464" y="212"/>
      <point x="360" y="325"/>
      <point x="340" y="457" type="curve"/>
      <point x="1027" y="457" type="line"/>
      <point x="1027" y="519" type="line" smooth="yes"/>
      <point x="1027" y="797"/>
      <point x="877" y="1016"/>
      <point x="562" y="1016" type="curve" smooth="yes"/>
      <point x="266" y="1016"/>
      <point x="59" y="783"/>
      <point x="59" y="514" type="curve" smooth="yes"/>
      <point x="59" y="202"/>
      <point x="276" y="-19"/>
    </contour>
    <contour>
      <point x="359" y="629" type="line"/>
      <point x="381" y="720"/>
      <point x="475" y="806"/>
      <point x="575" y="806" type="curve" smooth="yes"/>
      <point x="678" y="806"/>
      <point x="765" y="734"/>
      <point x="786" y="629" type="curve"/>
    </contour>
    <contour>
      <point x="393" y="113" type="curve" smooth="yes"/>
      <point x="409" y="112"/>
      <point x="425" y="118"/>
      <point x="435" y="129" type="curve" smooth="yes"/>
      <point x="696" y="401" type="line" smooth="yes"/>
      <point x="729" y="435"/>
      <point x="744" y="476"/>
      <point x="746" y="515" type="curve" smooth="yes"/>
      <point x="750" y="600"/>
      <point x="679" y="656"/>
      <point x="610" y="659" type="curve" smooth="yes"/>
      <point x="547" y="662"/>
      <point x="482" y="625"/>
      <point x="458" y="543" type="curve" smooth="yes"/>
      <point x="351" y="184" type="line" smooth="yes"/>
      <point x="349" y="176"/>
      <point x="347" y="170"/>
      <point x="347" y="164" type="curve" smooth="yes"/>
      <point x="345" y="131"/>
      <point x="369" y="114"/>
    </contour>
    <contour>
      <point x="547" y="996" type="move"/>
    </contour>
    <contour>
      <point x="547" y="996" type="move"/>
    </contour>
    <contour>
      <point x="547" y="0" type="move"/>
    </contour>
    <contour>
      <point x="985" y="10" type="move"/>
    </contour>
  </outline>
</glyph>
<glyph name="igrave" format="1">
  <advance width="456"/>
  <unicode hex="00EC"/>
  <outline>
    <contour>
      <point x="380" y="1047" type="curve" smooth="yes"/>
      <point x="419" y="1047"/>
      <point x="441" y="1084"/>
      <point x="441" y="1112" type="curve" smooth="yes"/>
      <point x="441" y="1115"/>
      <point x="441" y="1129"/>
      <point x="434" y="1148" type="curve"/>
      <point x="350" y="1520" type="line"/>
      <point x="325" y="1599"/>
      <point x="269" y="1644"/>
      <point x="205" y="1644" type="curve" smooth="yes"/>
      <point x="133" y="1644"/>
      <point x="63" y="1588"/>
      <point x="63" y="1503" type="curve" smooth="yes"/>
      <point x="63" y="1469"/>
      <point x="73" y="1431"/>
      <point x="103" y="1392" type="curve"/>
      <point x="312" y="1086" type="line" smooth="yes"/>
      <point x="328" y="1062"/>
      <point x="353" y="1047"/>
    </contour>
    <contour>
      <point x="110" y="0" type="line"/>
      <point x="394" y="0" type="line"/>
      <point x="394" y="996" type="line"/>
      <point x="110" y="996" type="line"/>
    </contour>
  </outline>
</glyph>
<glyph name="icircumflex" format="1">
  <advance width="455"/>
  <unicode hex="00EE"/>
  <outline>
    <contour>
      <point x="-53" y="1047" type="line" smooth="yes"/>
      <point x="-67" y="1047"/>
      <point x="-103" y="1051"/>
      <point x="-103" y="1100" type="curve" smooth="yes"/>
      <point x="-103" y="1101"/>
      <point x="-104" y="1102"/>
      <point x="-104" y="1105" type="curve" smooth="yes"/>
      <point x="-104" y="1109"/>
      <point x="-103" y="1116"/>
      <point x="-97" y="1129" type="curve"/>
      <point x="173" y="1541" type="line"/>
      <point x="191" y="1561"/>
      <point x="218" y="1576"/>
      <point x="251" y="1576" type="curve" smooth="yes"/>
      <point x="277" y="1576"/>
      <point x="309" y="1570"/>
      <point x="332" y="1540" type="curve"/>
      <point x="605" y="1120" type="line"/>
      <point x="605" y="1100" type="line" smooth="yes"/>
      <point x="605" y="1069"/>
      <point x="583" y="1047"/>
      <point x="552" y="1047" type="curve" smooth="yes"/>
      <point x="545" y="1047"/>
      <point x="530" y="1051"/>
      <point x="524" y="1053" type="curve"/>
      <point x="251" y="1244" type="line"/>
      <point x="-21" y="1053" type="line"/>
      <point x="-28" y="1051"/>
      <point x="-35" y="1047"/>
      <point x="-48" y="1047" type="curve" smooth="yes"/>
    </contour>
    <contour>
      <point x="110" y="0" type="line"/>
      <point x="110" y="999" type="line"/>
      <point x="392" y="999" type="line"/>
      <point x="392" y="0" type="line"/>
    </contour>
  </outline>
</glyph>
<glyph name="idieresis" format="1">
  <advance width="456"/>
  <unicode hex="00EF"/>
  <outline>
    <contour>
      <point x="62" y="1047" type="curve" smooth="yes"/>
      <point x="139" y="1047"/>
      <point x="231" y="1100"/>
      <point x="231" y="1210" type="curve" smooth="yes"/>
      <point x="231" y="1320"/>
      <point x="143" y="1381"/>
      <point x="62" y="1381" type="curve" smooth="yes"/>
      <point x="-20" y="1381"/>
      <point x="-105" y="1319"/>
      <point x="-105" y="1210" type="curve" smooth="yes"/>
      <point x="-105" y="1102"/>
      <point x="-17" y="1047"/>
    </contour>
    <contour>
      <point x="110" y="0" type="line"/>
      <point x="393" y="0" type="line"/>
      <point x="393" y="998" type="line"/>
      <point x="110" y="998" type="line"/>
    </contour>
    <contour>
      <point x="439" y="1047" type="curve" smooth="yes"/>
      <point x="517" y="1047"/>
      <point x="606" y="1101"/>
      <point x="606" y="1210" type="curve" smooth="yes"/>
      <point x="606" y="1319"/>
      <point x="521" y="1381"/>
      <point x="439" y="1381" type="curve" smooth="yes"/>
      <point x="358" y="1381"/>
      <point x="270" y="1320"/>
      <point x="270" y="1210" type="curve" smooth="yes"/>
      <point x="270" y="1101"/>
      <point x="361" y="1047"/>
    </contour>
  </outline>
</glyph>
<glyph name="ograve" format="1">
  <advance width="1198"/>
  <unicode hex="00F2"/>
  <outline>
    <contour>
      <point x="729" y="1045" type="curve" smooth="yes"/>
      <point x="787" y="1045"/>
      <point x="788" y="1098"/>
      <point x="788" y="1110" type="curve" smooth="yes"/>
      <point x="788" y="1116"/>
      <point x="788" y="1127"/>
      <point x="783" y="1144" type="curve"/>
      <point x="698" y="1520" type="line"/>
      <point x="673" y="1598"/>
      <point x="616" y="1644"/>
      <point x="553" y="1644" type="curve" smooth="yes"/>
      <point x="483" y="1644"/>
      <point x="409" y="1589"/>
      <point x="409" y="1504" type="curve" smooth="yes"/>
      <point x="409" y="1465"/>
      <point x="424" y="1429"/>
      <point x="452" y="1393" type="curve"/>
      <point x="660" y="1087" type="line" smooth="yes"/>
      <point x="673" y="1069"/>
      <point x="692" y="1045"/>
    </contour>
    <contour>
      <point x="599" y="233" type="curve" smooth="yes"/>
      <point x="429" y="233"/>
      <point x="311" y="348"/>
      <point x="311" y="497" type="curve" smooth="yes"/>
      <point x="311" y="647"/>
      <point x="429" y="761"/>
      <point x="599" y="761" type="curve" smooth="yes"/>
      <point x="769" y="761"/>
      <point x="889" y="647"/>
      <point x="889" y="497" type="curve" smooth="yes"/>
      <point x="889" y="349"/>
      <point x="769" y="233"/>
    </contour>
    <contour>
      <point x="599" y="-20" type="curve" smooth="yes"/>
      <point x="908" y="-20"/>
      <point x="1170" y="189"/>
      <point x="1170" y="499" type="curve" smooth="yes"/>
      <point x="1170" y="810"/>
      <point x="907" y="1015"/>
      <point x="599" y="1015" type="curve" smooth="yes"/>
      <point x="290" y="1015"/>
      <point x="30" y="809"/>
      <point x="30" y="499" type="curve" smooth="yes"/>
      <point x="30" y="189"/>
      <point x="290" y="-20"/>
    </contour>
  </outline>
</glyph>
<glyph name="yacute" format="1">
  <advance width="1003"/>
  <unicode hex="00FD"/>
  <outline>
    <contour>
      <point x="124" y="-268" type="line"/>
      <point x="432" y="-268" type="line"/>
      <point x="1073" y="996" type="line"/>
      <point x="767" y="996" type="line"/>
      <point x="534" y="528" type="line"/>
      <point x="296" y="996" type="line"/>
      <point x="-39" y="996" type="line"/>
      <point x="377" y="267" type="line"/>
    </contour>
    <contour>
      <point x="384" y="1047" type="curve" smooth="yes"/>
      <point x="416" y="1047"/>
      <point x="434" y="1073"/>
      <point x="450" y="1108" type="curve"/>
      <point x="670" y="1399" type="line"/>
      <point x="697" y="1447"/>
      <point x="714" y="1495"/>
      <point x="714" y="1546" type="curve" smooth="yes"/>
      <point x="714" y="1600"/>
      <point x="640" y="1633"/>
      <point x="572" y="1633" type="curve" smooth="yes"/>
      <point x="508" y="1633"/>
      <point x="448" y="1603"/>
      <point x="425" y="1546" type="curve"/>
      <point x="329" y="1184" type="line"/>
      <point x="324" y="1174"/>
      <point x="323" y="1170"/>
      <point x="323" y="1164" type="curve" smooth="yes"/>
      <point x="323" y="1134"/>
      <point x="337" y="1047"/>
    </contour>
  </outline>
</glyph>
<glyph name="ydieresis" format="1">
  <advance width="1003"/>
  <unicode hex="00FF"/>
  <outline>
    <contour>
      <point x="124" y="-269" type="line"/>
      <point x="432" y="-269" type="line"/>
      <point x="1073" y="997" type="line"/>
      <point x="767" y="997" type="line"/>
      <point x="534" y="479" type="line"/>
      <point x="296" y="997" type="line"/>
      <point x="-39" y="997" type="line"/>
      <point x="377" y="253" type="line"/>
    </contour>
    <contour>
      <point x="330" y="1046" type="curve" smooth="yes"/>
      <point x="407" y="1046"/>
      <point x="499" y="1099"/>
      <point x="499" y="1209" type="curve" smooth="yes"/>
      <point x="499" y="1320"/>
      <point x="411" y="1381"/>
      <point x="330" y="1381" type="curve" smooth="yes"/>
      <point x="248" y="1381"/>
      <point x="163" y="1319"/>
      <point x="163" y="1209" type="curve" smooth="yes"/>
      <point x="163" y="1102"/>
      <point x="251" y="1046"/>
    </contour>
    <contour>
      <point x="706" y="1046" type="curve" smooth="yes"/>
      <point x="785" y="1046"/>
      <point x="874" y="1100"/>
      <point x="874" y="1209" type="curve" smooth="yes"/>
      <point x="874" y="1319"/>
      <point x="789" y="1381"/>
      <point x="706" y="1381" type="curve" smooth="yes"/>
      <point x="625" y="1381"/>
      <point x="538" y="1320"/>
      <point x="538" y="1209" type="curve" smooth="yes"/>
      <point x="538" y="1101"/>
      <point x="628" y="1046"/>
    </contour>
  </outline>
</glyph>
<glyph name="abreve" format="1">
  <advance width="958"/>
  <unicode hex="0103"/>
  <outline>
    <contour>
      <point x="831" y="-28" type="line"/>
      <point x="791" y="-9" type="line" smooth="yes"/>
      <point x="741" y="14"/>
      <point x="678" y="52"/>
      <point x="630" y="104" type="curve"/>
      <point x="547" y="14"/>
      <point x="434" y="-19"/>
      <point x="354" y="-19" type="curve" smooth="yes"/>
      <point x="191" y="-19"/>
      <point x="35" y="53"/>
      <point x="35" y="246" type="curve" smooth="yes"/>
      <point x="35" y="375"/>
      <point x="162" y="489"/>
      <point x="425" y="551" type="curve"/>
      <point x="552" y="579" type="line"/>
      <point x="552" y="595" type="line" smooth="yes"/>
      <point x="552" y="697"/>
      <point x="507" y="741"/>
      <point x="433" y="741" type="curve" smooth="yes"/>
      <point x="337" y="741"/>
      <point x="252" y="697"/>
      <point x="190" y="638" type="curve" smooth="yes"/>
      <point x="132" y="582" type="line"/>
      <point x="46" y="841" type="line"/>
      <point x="67" y="863" type="line" smooth="yes"/>
      <point x="118" y="916"/>
      <point x="269" y="1006"/>
      <point x="429" y="1006" type="curve" smooth="yes"/>
      <point x="608" y="1006"/>
      <point x="831" y="920"/>
      <point x="831" y="676" type="curve" smooth="yes"/>
      <point x="831" y="304" type="line" smooth="yes"/>
      <point x="831" y="232"/>
      <point x="843" y="246"/>
      <point x="935" y="202" type="curve" smooth="yes"/>
      <point x="986" y="178" type="line"/>
    </contour>
    <contour>
      <point x="499" y="1047" type="curve" smooth="yes"/>
      <point x="361" y="1047"/>
      <point x="223" y="1148"/>
      <point x="216" y="1335" type="curve" smooth="yes"/>
      <point x="214" y="1388" type="line"/>
      <point x="418" y="1388" type="line"/>
      <point x="423" y="1343" type="line" smooth="yes"/>
      <point x="429" y="1286"/>
      <point x="465" y="1265"/>
      <point x="498" y="1265" type="curve" smooth="yes"/>
      <point x="531" y="1265"/>
      <point x="568" y="1287"/>
      <point x="574" y="1343" type="curve" smooth="yes"/>
      <point x="579" y="1388" type="line"/>
      <point x="783" y="1388" type="line"/>
      <point x="781" y="1335" type="line" smooth="yes"/>
      <point x="774" y="1148"/>
      <point x="636" y="1047"/>
    </contour>
    <contour>
      <point x="381" y="169" type="curve" smooth="yes"/>
      <point x="428" y="169"/>
      <point x="503" y="196"/>
      <point x="551" y="244" type="curve"/>
      <point x="551" y="391" type="line"/>
      <point x="420" y="352"/>
      <point x="326" y="311"/>
      <point x="326" y="246" type="curve" smooth="yes"/>
      <point x="326" y="205"/>
      <point x="336" y="188"/>
      <point x="344" y="180" type="curve" smooth="yes"/>
      <point x="351" y="173"/>
      <point x="364" y="169"/>
    </contour>
  </outline>
</glyph>
<glyph name="cacute" format="1">
  <advance width="1140"/>
  <unicode hex="0107"/>
  <outline>
    <contour>
      <point x="667" y="-19" type="curve" smooth="yes"/>
      <point x="351" y="-19"/>
      <point x="105" y="197"/>
      <point x="105" y="500" type="curve" smooth="yes"/>
      <point x="105" y="808"/>
      <point x="366" y="1016"/>
      <point x="660" y="1016" type="curve" smooth="yes"/>
      <point x="752" y="1016"/>
      <point x="871" y="1000"/>
      <point x="943" y="953" type="curve" smooth="yes"/>
      <point x="966" y="938" type="line"/>
      <point x="966" y="661" type="line"/>
      <point x="891" y="701" type="line" smooth="yes"/>
      <point x="804" y="748"/>
      <point x="770" y="761"/>
      <point x="676" y="761" type="curve" smooth="yes"/>
      <point x="494" y="761"/>
      <point x="391" y="628"/>
      <point x="391" y="500" type="curve" smooth="yes"/>
      <point x="391" y="369"/>
      <point x="486" y="234"/>
      <point x="679" y="234" type="curve" smooth="yes"/>
      <point x="749" y="234"/>
      <point x="839" y="272"/>
      <point x="907" y="313" type="curve"/>
      <point x="989" y="313" type="line"/>
      <point x="989" y="68" type="line"/>
      <point x="965" y="53" type="line" smooth="yes"/>
      <point x="856" y="-16"/>
      <point x="696" y="-19"/>
    </contour>
    <contour>
      <point x="412" y="1046" type="curve" smooth="yes"/>
      <point x="356" y="1046"/>
      <point x="351" y="1102"/>
      <point x="351" y="1112" type="curve" smooth="yes"/>
      <point x="351" y="1123"/>
      <point x="352" y="1135"/>
      <point x="356" y="1147" type="curve"/>
      <point x="453" y="1509" type="line"/>
      <point x="476" y="1589"/>
      <point x="536" y="1633"/>
      <point x="600" y="1633" type="curve" smooth="yes"/>
      <point x="668" y="1633"/>
      <point x="742" y="1581"/>
      <point x="742" y="1495" type="curve" smooth="yes"/>
      <point x="742" y="1456"/>
      <point x="726" y="1417"/>
      <point x="698" y="1379" type="curve" smooth="yes"/>
      <point x="478" y="1090" type="line"/>
      <point x="467" y="1073"/>
      <point x="455" y="1046"/>
    </contour>
  </outline>
</glyph>
<glyph name="cdotaccent" format="1">
  <advance width="1140"/>
  <unicode hex="010B"/>
  <outline>
    <contour>
      <point x="667" y="-20" type="curve" smooth="yes"/>
      <point x="351" y="-20"/>
      <point x="105" y="197"/>
      <point x="105" y="499" type="curve" smooth="yes"/>
      <point x="105" y="807"/>
      <point x="366" y="1016"/>
      <point x="660" y="1016" type="curve" smooth="yes"/>
      <point x="753" y="1016"/>
      <point x="872" y="999"/>
      <point x="943" y="952" type="curve" smooth="yes"/>
      <point x="966" y="937" type="line"/>
      <point x="966" y="660" type="line"/>
      <point x="891" y="700" type="line" smooth="yes"/>
      <point x="804" y="747"/>
      <point x="770" y="761"/>
      <point x="676" y="761" type="curve" smooth="yes"/>
      <point x="494" y="761"/>
      <point x="391" y="629"/>
      <point x="391" y="500" type="curve" smooth="yes"/>
      <point x="391" y="369"/>
      <point x="486" y="234"/>
      <point x="679" y="234" type="curve" smooth="yes"/>
      <point x="749" y="234"/>
      <point x="840" y="271"/>
      <point x="907" y="312" type="curve"/>
      <point x="989" y="312" type="line"/>
      <point x="989" y="67" type="line"/>
      <point x="965" y="52" type="line" smooth="yes"/>
      <point x="856" y="-16"/>
      <point x="697" y="-20"/>
    </contour>
    <contour>
      <point x="547" y="1046" type="curve" smooth="yes"/>
      <point x="461" y="1046"/>
      <point x="366" y="1105"/>
      <point x="366" y="1224" type="curve" smooth="yes"/>
      <point x="366" y="1344"/>
      <point x="459" y="1409"/>
      <point x="547" y="1409" type="curve" smooth="yes"/>
      <point x="635" y="1409"/>
      <point x="728" y="1342"/>
      <point x="728" y="1224" type="curve" smooth="yes"/>
      <point x="728" y="1105"/>
      <point x="632" y="1046"/>
    </contour>
  </outline>
</glyph>
<glyph name="dcroat" format="1">
  <advance width="1292"/>
  <unicode hex="0111"/>
  <outline>
    <contour>
      <point x="653" y="-18" type="curve" smooth="yes"/>
      <point x="239" y="-18"/>
      <point x="42" y="252"/>
      <point x="42" y="514" type="curve" smooth="yes"/>
      <point x="42" y="762"/>
      <point x="220" y="1017"/>
      <point x="554" y="1017" type="curve" smooth="yes"/>
      <point x="616" y="1017"/>
      <point x="678" y="1006"/>
      <point x="737" y="984" type="curve"/>
      <point x="737" y="1089" type="line"/>
      <point x="408" y="1089" type="line"/>
      <point x="408" y="1320" type="line"/>
      <point x="737" y="1320" type="line"/>
      <point x="737" y="1490" type="line"/>
      <point x="1020" y="1490" type="line"/>
      <point x="1020" y="1320" type="line"/>
      <point x="1128" y="1320" type="line"/>
      <point x="1128" y="1089" type="line"/>
      <point x="1020" y="1089" type="line"/>
      <point x="1020" y="60" type="line"/>
      <point x="991" y="48" type="line" smooth="yes"/>
      <point x="984" y="45"/>
      <point x="837" y="-18"/>
    </contour>
    <contour>
      <point x="666" y="217" type="curve" smooth="yes"/>
      <point x="691" y="217"/>
      <point x="715" y="218"/>
      <point x="737" y="222" type="curve"/>
      <point x="737" y="727" type="line"/>
      <point x="700" y="751"/>
      <point x="639" y="769"/>
      <point x="576" y="769" type="curve" smooth="yes"/>
      <point x="423" y="769"/>
      <point x="331" y="651"/>
      <point x="331" y="507" type="curve" smooth="yes"/>
      <point x="331" y="355"/>
      <point x="433" y="217"/>
    </contour>
  </outline>
</glyph>
<glyph name="edotaccent" format="1">
  <advance width="1051"/>
  <unicode hex="0117"/>
  <outline>
    <contour>
      <point x="615" y="-20" type="curve" smooth="yes"/>
      <point x="265" y="-20"/>
      <point x="29" y="200"/>
      <point x="29" y="513" type="curve" smooth="yes"/>
      <point x="29" y="781"/>
      <point x="236" y="1014"/>
      <point x="532" y="1014" type="curve" smooth="yes"/>
      <point x="847" y="1014"/>
      <point x="997" y="796"/>
      <point x="997" y="518" type="curve" smooth="yes"/>
      <point x="997" y="446" type="line"/>
      <point x="326" y="446" type="line"/>
      <point x="346" y="314"/>
      <point x="447" y="231"/>
      <point x="614" y="231" type="curve" smooth="yes"/>
      <point x="713" y="231"/>
      <point x="808" y="260"/>
      <point x="899" y="322" type="curve" smooth="yes"/>
      <point x="979" y="376" type="line"/>
      <point x="979" y="96" type="line"/>
      <point x="956" y="80" type="line" smooth="yes"/>
      <point x="857" y="15"/>
      <point x="742" y="-20"/>
    </contour>
    <contour>
      <point x="514" y="1046" type="curve" smooth="yes"/>
      <point x="427" y="1046"/>
      <point x="333" y="1106"/>
      <point x="333" y="1224" type="curve" smooth="yes"/>
      <point x="333" y="1344"/>
      <point x="425" y="1409"/>
      <point x="514" y="1409" type="curve" smooth="yes"/>
      <point x="602" y="1409"/>
      <point x="693" y="1342"/>
      <point x="693" y="1224" type="curve" smooth="yes"/>
      <point x="693" y="1106"/>
      <point x="598" y="1046"/>
    </contour>
    <contour>
      <point x="344" y="669" type="curve"/>
      <point x="726" y="669" type="line"/>
      <point x="705" y="727"/>
      <point x="634" y="764"/>
      <point x="538" y="764" type="curve" smooth="yes"/>
      <point x="440" y="764"/>
      <point x="376" y="727"/>
    </contour>
  </outline>
</glyph>
<glyph name="Gcircumflex" format="1">
  <advance width="1543"/>
  <unicode hex="011C"/>
  <outline>
    <contour>
      <point x="870" y="-19" type="curve" smooth="yes"/>
      <point x="314" y="-19"/>
      <point x="55" y="394"/>
      <point x="55" y="735" type="curve" smooth="yes"/>
      <point x="55" y="1205"/>
      <point x="442" y="1536"/>
      <point x="921" y="1536" type="curve" smooth="yes"/>
      <point x="1086" y="1536"/>
      <point x="1253" y="1492"/>
      <point x="1411" y="1402" type="curve" smooth="yes"/>
      <point x="1437" y="1388" type="line"/>
      <point x="1437" y="1097" type="line"/>
      <point x="1359" y="1146" type="line" smooth="yes"/>
      <point x="1219" y="1234"/>
      <point x="1071" y="1273"/>
      <point x="936" y="1273" type="curve" smooth="yes"/>
      <point x="617" y="1273"/>
      <point x="354" y="1075"/>
      <point x="354" y="733" type="curve" smooth="yes"/>
      <point x="354" y="464"/>
      <point x="560" y="247"/>
      <point x="886" y="247" type="curve" smooth="yes"/>
      <point x="973" y="247"/>
      <point x="1072" y="263"/>
      <point x="1177" y="296" type="curve"/>
      <point x="1177" y="506" type="line"/>
      <point x="902" y="506" type="line"/>
      <point x="902" y="781" type="line"/>
      <point x="1472" y="781" type="line"/>
      <point x="1472" y="113" type="line"/>
      <point x="1441" y="100" type="line"/>
      <point x="1225" y="15"/>
      <point x="1035" y="-19"/>
    </contour>
    <contour>
      <point x="460" y="1565" type="curve"/>
      <point x="428" y="1565"/>
      <point x="405" y="1588"/>
      <point x="405" y="1620" type="curve" smooth="yes"/>
      <point x="405" y="1662"/>
      <point x="418" y="1655"/>
      <point x="418" y="1655" type="curve"/>
      <point x="679" y="2057" type="line" smooth="yes"/>
      <point x="697" y="2084"/>
      <point x="728" y="2096"/>
      <point x="759" y="2096" type="curve" smooth="yes"/>
      <point x="789" y="2096"/>
      <point x="821" y="2085"/>
      <point x="839" y="2057" type="curve" smooth="yes"/>
      <point x="1113" y="1637" type="line"/>
      <point x="1113" y="1620" type="line" smooth="yes"/>
      <point x="1113" y="1574"/>
      <point x="1078" y="1565"/>
      <point x="1057" y="1565" type="curve" smooth="yes"/>
      <point x="1055" y="1565" type="line" smooth="yes"/>
      <point x="1051" y="1565"/>
      <point x="1043" y="1565"/>
      <point x="1033" y="1570" type="curve"/>
      <point x="759" y="1761" type="line"/>
      <point x="481" y="1569" type="line"/>
      <point x="480" y="1569"/>
      <point x="461" y="1565"/>
    </contour>
  </outline>
</glyph>
<glyph name="gcircumflex" format="1">
  <advance width="1186"/>
  <unicode hex="011D"/>
  <outline>
    <contour>
      <point x="564" y="-439" type="curve" smooth="yes"/>
      <point x="453" y="-439"/>
      <point x="344" y="-414"/>
      <point x="256" y="-376" type="curve" smooth="yes"/>
      <point x="225" y="-363" type="line"/>
      <point x="225" y="-95" type="line"/>
      <point x="296" y="-125" type="line" smooth="yes"/>
      <point x="390" y="-164"/>
      <point x="490" y="-190"/>
      <point x="572" y="-190" type="curve" smooth="yes"/>
      <point x="692" y="-190"/>
      <point x="765" y="-148"/>
      <point x="765" y="-10" type="curve" smooth="yes"/>
      <point x="765" y="9"/>
      <point x="763" y="31"/>
      <point x="759" y="54" type="curve"/>
      <point x="709" y="28"/>
      <point x="638" y="0"/>
      <point x="551" y="0" type="curve" smooth="yes"/>
      <point x="205" y="0"/>
      <point x="42" y="274"/>
      <point x="42" y="523" type="curve" smooth="yes"/>
      <point x="42" y="802"/>
      <point x="279" y="1015"/>
      <point x="529" y="1015" type="curve" smooth="yes"/>
      <point x="602" y="1015"/>
      <point x="676" y="991"/>
      <point x="745" y="943" type="curve"/>
      <point x="745" y="997" type="line"/>
      <point x="1022" y="997" type="line"/>
      <point x="1022" y="-2" type="line" smooth="yes"/>
      <point x="1022" y="-327"/>
      <point x="785" y="-439"/>
    </contour>
    <contour>
      <point x="233" y="1046" type="curve" smooth="yes"/>
      <point x="221" y="1046"/>
      <point x="178" y="1055"/>
      <point x="178" y="1100" type="curve" smooth="yes"/>
      <point x="178" y="1101"/>
      <point x="177" y="1105"/>
      <point x="181" y="1122" type="curve"/>
      <point x="454" y="1539" type="line"/>
      <point x="471" y="1560"/>
      <point x="500" y="1575"/>
      <point x="532" y="1575" type="curve" smooth="yes"/>
      <point x="565" y="1575"/>
      <point x="596" y="1563"/>
      <point x="613" y="1538" type="curve" smooth="yes"/>
      <point x="886" y="1118" type="line"/>
      <point x="886" y="1100" type="line" smooth="yes"/>
      <point x="886" y="1084"/>
      <point x="873" y="1046"/>
      <point x="833" y="1046" type="curve" smooth="yes"/>
      <point x="826" y="1046"/>
      <point x="811" y="1050"/>
      <point x="805" y="1052" type="curve"/>
      <point x="532" y="1242" type="line"/>
      <point x="260" y="1052" type="line"/>
      <point x="253" y="1050"/>
      <point x="246" y="1046"/>
    </contour>
    <contour>
      <point x="584" y="253" type="curve" smooth="yes"/>
      <point x="630" y="253"/>
      <point x="685" y="262"/>
      <point x="742" y="281" type="curve"/>
      <point x="742" y="706" type="line"/>
      <point x="680" y="745"/>
      <point x="621" y="759"/>
      <point x="570" y="759" type="curve" smooth="yes"/>
      <point x="452" y="759"/>
      <point x="328" y="674"/>
      <point x="328" y="514" type="curve" smooth="yes"/>
      <point x="328" y="338"/>
      <point x="431" y="253"/>
    </contour>
  </outline>
</glyph>
<glyph name="gdotaccent" format="1">
  <advance width="1186"/>
  <unicode hex="0121"/>
  <outline>
    <contour>
      <point x="564" y="-437" type="curve" smooth="yes"/>
      <point x="453" y="-437"/>
      <point x="344" y="-413"/>
      <point x="256" y="-375" type="curve" smooth="yes"/>
      <point x="225" y="-362" type="line"/>
      <point x="225" y="-95" type="line"/>
      <point x="296" y="-125" type="line" smooth="yes"/>
      <point x="389" y="-164"/>
      <point x="490" y="-189"/>
      <point x="572" y="-189" type="curve" smooth="yes"/>
      <point x="692" y="-189"/>
      <point x="765" y="-147"/>
      <point x="765" y="-8" type="curve" smooth="yes"/>
      <point x="765" y="11"/>
      <point x="763" y="32"/>
      <point x="759" y="55" type="curve"/>
      <point x="710" y="28"/>
      <point x="639" y="0"/>
      <point x="551" y="0" type="curve" smooth="yes"/>
      <point x="205" y="0"/>
      <point x="42" y="276"/>
      <point x="42" y="524" type="curve" smooth="yes"/>
      <point x="42" y="801"/>
      <point x="279" y="1016"/>
      <point x="529" y="1016" type="curve" smooth="yes"/>
      <point x="602" y="1016"/>
      <point x="676" y="992"/>
      <point x="745" y="944" type="curve"/>
      <point x="745" y="998" type="line"/>
      <point x="1022" y="998" type="line"/>
      <point x="1022" y="-1" type="line" smooth="yes"/>
      <point x="1022" y="-328"/>
      <point x="784" y="-437"/>
    </contour>
    <contour>
      <point x="584" y="254" type="curve" smooth="yes"/>
      <point x="629" y="254"/>
      <point x="684" y="262"/>
      <point x="742" y="281" type="curve"/>
      <point x="742" y="708" type="line"/>
      <point x="679" y="746"/>
      <point x="620" y="761"/>
      <point x="570" y="761" type="curve" smooth="yes"/>
      <point x="453" y="761"/>
      <point x="328" y="675"/>
      <point x="328" y="515" type="curve" smooth="yes"/>
      <point x="328" y="340"/>
      <point x="431" y="254"/>
    </contour>
    <contour>
      <point x="532" y="1047" type="curve" smooth="yes"/>
      <point x="446" y="1047"/>
      <point x="351" y="1106"/>
      <point x="351" y="1225" type="curve" smooth="yes"/>
      <point x="351" y="1346"/>
      <point x="444" y="1409"/>
      <point x="532" y="1409" type="curve" smooth="yes"/>
      <point x="619" y="1409"/>
      <point x="713" y="1345"/>
      <point x="713" y="1225" type="curve" smooth="yes"/>
      <point x="713" y="1106"/>
      <point x="617" y="1047"/>
    </contour>
  </outline>
</glyph>
<glyph name="hcircumflex" format="1">
  <advance width="1158"/>
  <unicode hex="0125"/>
  <outline>
    <contour>
      <point x="324" y="1520" type="curve" smooth="yes"/>
      <point x="308" y="1520"/>
      <point x="277" y="1527"/>
      <point x="277" y="1574" type="curve" smooth="yes"/>
      <point x="277" y="1616"/>
      <point x="290" y="1609"/>
      <point x="290" y="1609" type="curve"/>
      <point x="553" y="2013" type="line"/>
      <point x="570" y="2035"/>
      <point x="597" y="2049"/>
      <point x="631" y="2049" type="curve" smooth="yes"/>
      <point x="654" y="2049"/>
      <point x="689" y="2047"/>
      <point x="713" y="2011" type="curve" smooth="yes"/>
      <point x="985" y="1591" type="line"/>
      <point x="985" y="1574" type="line" smooth="yes"/>
      <point x="985" y="1543"/>
      <point x="963" y="1521"/>
      <point x="932" y="1521" type="curve" smooth="yes"/>
      <point x="932" y="1521"/>
      <point x="920" y="1521"/>
      <point x="905" y="1528" type="curve"/>
      <point x="631" y="1717" type="line"/>
      <point x="360" y="1527" type="line"/>
      <point x="341" y="1515"/>
      <point x="334" y="1521"/>
      <point x="334" y="1521" type="curve"/>
      <point x="334" y="1521"/>
      <point x="330" y="1520"/>
    </contour>
    <contour>
      <point x="166" y="0" type="line"/>
      <point x="166" y="1490" type="line"/>
      <point x="447" y="1490" type="line"/>
      <point x="447" y="940" type="line"/>
      <point x="528" y="990"/>
      <point x="620" y="1017"/>
      <point x="710" y="1017" type="curve" smooth="yes"/>
      <point x="908" y="1017"/>
      <point x="1093" y="896"/>
      <point x="1093" y="646" type="curve" smooth="yes"/>
      <point x="1093" y="0" type="line"/>
      <point x="812" y="0" type="line"/>
      <point x="812" y="574" type="line" smooth="yes"/>
      <point x="812" y="733"/>
      <point x="776" y="759"/>
      <point x="687" y="759" type="curve" smooth="yes"/>
      <point x="640" y="759"/>
      <point x="500" y="717"/>
      <point x="447" y="671" type="curve"/>
      <point x="447" y="0" type="line"/>
    </contour>
  </outline>
</glyph>
<glyph name="Imacron" format="1">
  <advance width="429"/>
  <unicode hex="012A"/>
  <outline>
    <contour>
      <point x="68" y="0" type="line"/>
      <point x="362" y="0" type="line"/>
      <point x="362" y="1516" type="line"/>
      <point x="68" y="1516" type="line"/>
    </contour>
    <contour>
      <point x="-93" y="1566" type="line"/>
      <point x="522" y="1566" type="line"/>
      <point x="522" y="1820" type="line"/>
      <point x="-93" y="1820" type="line"/>
    </contour>
  </outline>
</glyph>
<glyph name="Idotaccent" format="1">
  <advance width="428"/>
  <unicode hex="0130"/>
  <outline>
    <contour>
      <point x="67" y="0" type="line"/>
      <point x="361" y="0" type="line"/>
      <point x="361" y="1515" type="line"/>
      <point x="67" y="1515" type="line"/>
    </contour>
    <contour>
      <point x="214" y="1566" type="curve" smooth="yes"/>
      <point x="300" y="1566"/>
      <point x="395" y="1627"/>
      <point x="395" y="1745" type="curve" smooth="yes"/>
      <point x="395" y="1863"/>
      <point x="302" y="1929"/>
      <point x="214" y="1929" type="curve" smooth="yes"/>
      <point x="126" y="1929"/>
      <point x="35" y="1864"/>
      <point x="35" y="1745" type="curve" smooth="yes"/>
      <point x="35" y="1627"/>
      <point x="128" y="1566"/>
    </contour>
  </outline>
</glyph>
<glyph name="Kcommaaccent" format="1">
  <advance width="1326"/>
  <unicode hex="0136"/>
  <outline>
    <contour>
      <point x="77" y="0" type="line"/>
      <point x="77" y="1517" type="line"/>
      <point x="371" y="1517" type="line"/>
      <point x="371" y="908" type="line"/>
      <point x="910" y="1517" type="line"/>
      <point x="1219" y="1517" type="line"/>
      <point x="1219" y="1442" type="line"/>
      <point x="614" y="788" type="line"/>
      <point x="1311" y="75" type="line"/>
      <point x="1311" y="0" type="line"/>
      <point x="979" y="0" type="line"/>
      <point x="371" y="663" type="line"/>
      <point x="371" y="0" type="line"/>
    </contour>
    <contour>
      <point x="570" y="-604" type="line"/>
      <point x="496" y="-524" type="line"/>
      <point x="534" y="-489" type="line" smooth="yes"/>
      <point x="578" y="-449"/>
      <point x="595" y="-419"/>
      <point x="601" y="-375" type="curve"/>
      <point x="535" y="-342"/>
      <point x="502" y="-279"/>
      <point x="502" y="-218" type="curve" smooth="yes"/>
      <point x="502" y="-97"/>
      <point x="595" y="-30"/>
      <point x="685" y="-30" type="curve" smooth="yes"/>
      <point x="778" y="-30"/>
      <point x="879" y="-95"/>
      <point x="879" y="-227" type="curve" smooth="yes"/>
      <point x="879" y="-378"/>
      <point x="744" y="-604"/>
      <point x="592" y="-604" type="curve" smooth="yes"/>
    </contour>
  </outline>
</glyph>
<glyph name="Nacute" format="1">
  <advance width="1595"/>
  <unicode hex="0143"/>
  <outline>
    <contour>
      <point x="75" y="0" type="line"/>
      <point x="359" y="0" type="line"/>
      <point x="359" y="1103" type="line"/>
      <point x="1281" y="0" type="line"/>
      <point x="1520" y="0" type="line"/>
      <point x="1520" y="1515" type="line"/>
      <point x="1233" y="1515" type="line"/>
      <point x="1233" y="400" type="line"/>
      <point x="304" y="1515" type="line"/>
      <point x="75" y="1515" type="line"/>
    </contour>
    <contour>
      <point x="663" y="1566" type="curve" smooth="yes"/>
      <point x="699" y="1566"/>
      <point x="713" y="1585"/>
      <point x="729" y="1609" type="curve"/>
      <point x="949" y="1898" type="line" smooth="yes"/>
      <point x="977" y="1936"/>
      <point x="993" y="1975"/>
      <point x="993" y="2014" type="curve" smooth="yes"/>
      <point x="993" y="2100"/>
      <point x="920" y="2152"/>
      <point x="851" y="2152" type="curve" smooth="yes"/>
      <point x="787" y="2152"/>
      <point x="727" y="2110"/>
      <point x="704" y="2028" type="curve"/>
      <point x="607" y="1666" type="line" smooth="yes"/>
      <point x="603" y="1653"/>
      <point x="602" y="1643"/>
      <point x="602" y="1632" type="curve" smooth="yes"/>
      <point x="602" y="1617"/>
      <point x="613" y="1566"/>
    </contour>
  </outline>
</glyph>
<glyph name="ncaron" format="1">
  <advance width="1146"/>
  <unicode hex="0148"/>
  <outline>
    <contour>
      <point x="166" y="0" type="line"/>
      <point x="447" y="0" type="line"/>
      <point x="447" y="658" type="line"/>
      <point x="498" y="714"/>
      <point x="610" y="767"/>
      <point x="692" y="767" type="curve" smooth="yes"/>
      <point x="754" y="767"/>
      <point x="801" y="747"/>
      <point x="801" y="641" type="curve" smooth="yes"/>
      <point x="801" y="0" type="line"/>
      <point x="1081" y="0" type="line"/>
      <point x="1081" y="665" type="line" smooth="yes"/>
      <point x="1081" y="867"/>
      <point x="935" y="1017"/>
      <point x="719" y="1017" type="curve" smooth="yes"/>
      <point x="668" y="1017"/>
      <point x="560" y="1008"/>
      <point x="443" y="920" type="curve"/>
      <point x="443" y="999" type="line"/>
      <point x="166" y="999" type="line"/>
    </contour>
    <contour>
      <point x="622" y="1047" type="curve" smooth="yes"/>
      <point x="657" y="1047"/>
      <point x="680" y="1062"/>
      <point x="699" y="1081" type="curve"/>
      <point x="964" y="1488" type="line"/>
      <point x="964" y="1488"/>
      <point x="977" y="1481"/>
      <point x="977" y="1523" type="curve" smooth="yes"/>
      <point x="977" y="1563"/>
      <point x="939" y="1576"/>
      <point x="923" y="1576" type="curve" smooth="yes"/>
      <point x="909" y="1576"/>
      <point x="904" y="1573"/>
      <point x="896" y="1570" type="curve"/>
      <point x="622" y="1380" type="line"/>
      <point x="351" y="1570" type="line"/>
      <point x="344" y="1572"/>
      <point x="326" y="1576"/>
      <point x="322" y="1576" type="curve" smooth="yes"/>
      <point x="291" y="1576"/>
      <point x="269" y="1554"/>
      <point x="269" y="1523" type="curve" smooth="yes"/>
      <point x="269" y="1506" type="line"/>
      <point x="545" y="1081" type="line"/>
      <point x="564" y="1062"/>
      <point x="587" y="1047"/>
    </contour>
  </outline>
</glyph>
<glyph name="OE" format="1">
  <advance width="2297"/>
  <unicode hex="0152"/>
  <outline>
    <contour>
      <point x="836" y="-19" type="curve" smooth="yes"/>
      <point x="1019" y="-19"/>
      <point x="1187" y="60"/>
      <point x="1314" y="188" type="curve"/>
      <point x="1314" y="0" type="line"/>
      <point x="2262" y="0" type="line"/>
      <point x="2262" y="279" type="line"/>
      <point x="1608" y="279" type="line"/>
      <point x="1608" y="631" type="line"/>
      <point x="2235" y="631" type="line"/>
      <point x="2235" y="907" type="line"/>
      <point x="1608" y="907" type="line"/>
      <point x="1608" y="1237" type="line"/>
      <point x="2249" y="1237" type="line"/>
      <point x="2249" y="1516" type="line"/>
      <point x="1314" y="1516" type="line"/>
      <point x="1314" y="1331" type="line"/>
      <point x="1187" y="1457"/>
      <point x="1019" y="1536"/>
      <point x="836" y="1536" type="curve" smooth="yes"/>
      <point x="314" y="1536"/>
      <point x="53" y="1144"/>
      <point x="53" y="760" type="curve" smooth="yes"/>
      <point x="53" y="377"/>
      <point x="315" y="-19"/>
    </contour>
    <contour>
      <point x="836" y="265" type="curve" smooth="yes"/>
      <point x="511" y="265"/>
      <point x="347" y="503"/>
      <point x="347" y="758" type="curve" smooth="yes"/>
      <point x="347" y="1014"/>
      <point x="512" y="1254"/>
      <point x="836" y="1254" type="curve" smooth="yes"/>
      <point x="1093" y="1254"/>
      <point x="1314" y="1036"/>
      <point x="1314" y="759" type="curve" smooth="yes"/>
      <point x="1314" y="482"/>
      <point x="1093" y="265"/>
    </contour>
    <contour>
      <point x="1149" y="1516" type="move"/>
    </contour>
  </outline>
</glyph>
<glyph name="rcaron" format="1">
  <advance width="823"/>
  <unicode hex="0159"/>
  <outline>
    <contour>
      <point x="437" y="1047" type="curve" smooth="yes"/>
      <point x="405" y="1047"/>
      <point x="379" y="1058"/>
      <point x="359" y="1082" type="curve"/>
      <point x="84" y="1506" type="line"/>
      <point x="84" y="1523" type="line" smooth="yes"/>
      <point x="84" y="1554"/>
      <point x="106" y="1576"/>
      <point x="137" y="1576" type="curve"/>
      <point x="138" y="1576" type="line"/>
      <point x="141" y="1576"/>
      <point x="151" y="1576"/>
      <point x="165" y="1570" type="curve"/>
      <point x="437" y="1380" type="line"/>
      <point x="707" y="1568" type="line"/>
      <point x="710" y="1570" type="line"/>
      <point x="710" y="1570"/>
      <point x="729" y="1576"/>
      <point x="736" y="1576" type="curve" smooth="yes"/>
      <point x="737" y="1576"/>
      <point x="792" y="1574"/>
      <point x="792" y="1523" type="curve" smooth="yes"/>
      <point x="792" y="1481"/>
      <point x="779" y="1488"/>
      <point x="779" y="1488" type="curve"/>
      <point x="514" y="1081" type="line"/>
      <point x="495" y="1062"/>
      <point x="472" y="1047"/>
    </contour>
    <contour>
      <point x="57" y="0" type="line"/>
      <point x="57" y="999" type="line"/>
      <point x="335" y="999" type="line"/>
      <point x="335" y="902" type="line"/>
      <point x="390" y="967"/>
      <point x="465" y="1017"/>
      <point x="561" y="1017" type="curve" smooth="yes"/>
      <point x="629" y="1017"/>
      <point x="725" y="980"/>
      <point x="810" y="884" type="curve" smooth="yes"/>
      <point x="837" y="853" type="line"/>
      <point x="656" y="605" type="line"/>
      <point x="615" y="659" type="line" smooth="yes"/>
      <point x="586" y="696"/>
      <point x="546" y="726"/>
      <point x="517" y="726" type="curve" smooth="yes"/>
      <point x="486" y="726"/>
      <point x="411" y="703"/>
      <point x="367" y="595" type="curve" smooth="yes"/>
      <point x="348" y="549"/>
      <point x="335" y="487"/>
      <point x="335" y="406" type="curve" smooth="yes"/>
      <point x="335" y="0" type="line"/>
    </contour>
  </outline>
</glyph>
<glyph name="sacute" format="1">
  <advance width="833"/>
  <unicode hex="015B"/>
  <outline>
    <contour>
      <point x="425" y="-19" type="curve" smooth="yes"/>
      <point x="293" y="-19"/>
      <point x="150" y="20"/>
      <point x="67" y="104" type="curve" smooth="yes"/>
      <point x="49" y="122" type="line"/>
      <point x="82" y="378" type="line"/>
      <point x="152" y="327" type="line" smooth="yes"/>
      <point x="219" y="278"/>
      <point x="332" y="237"/>
      <point x="423" y="237" type="curve" smooth="yes"/>
      <point x="494" y="237"/>
      <point x="515" y="257"/>
      <point x="515" y="287" type="curve" smooth="yes"/>
      <point x="515" y="303"/>
      <point x="507" y="327"/>
      <point x="446" y="362" type="curve"/>
      <point x="236" y="472" type="line" smooth="yes"/>
      <point x="104" y="541"/>
      <point x="54" y="644"/>
      <point x="54" y="740" type="curve" smooth="yes"/>
      <point x="54" y="889"/>
      <point x="197" y="1016"/>
      <point x="432" y="1016" type="curve" smooth="yes"/>
      <point x="531" y="1016"/>
      <point x="650" y="987"/>
      <point x="731" y="937" type="curve" smooth="yes"/>
      <point x="763" y="917" type="line"/>
      <point x="700" y="676" type="line"/>
      <point x="643" y="707" type="line" smooth="yes"/>
      <point x="593" y="734"/>
      <point x="514" y="769"/>
      <point x="443" y="769" type="curve" smooth="yes"/>
      <point x="367" y="769"/>
      <point x="338" y="750"/>
      <point x="338" y="711" type="curve" smooth="yes"/>
      <point x="338" y="699"/>
      <point x="344" y="672"/>
      <point x="419" y="626" type="curve"/>
      <point x="601" y="525" type="line"/>
      <point x="724" y="455"/>
      <point x="788" y="356"/>
      <point x="788" y="262" type="curve" smooth="yes"/>
      <point x="788" y="107"/>
      <point x="640" y="-19"/>
    </contour>
    <contour>
      <point x="259" y="1046" type="curve" smooth="yes"/>
      <point x="203" y="1046"/>
      <point x="198" y="1102"/>
      <point x="198" y="1112" type="curve" smooth="yes"/>
      <point x="198" y="1123"/>
      <point x="199" y="1135"/>
      <point x="203" y="1147" type="curve"/>
      <point x="300" y="1509" type="line"/>
      <point x="323" y="1589"/>
      <point x="383" y="1633"/>
      <point x="447" y="1633" type="curve" smooth="yes"/>
      <point x="515" y="1633"/>
      <point x="589" y="1581"/>
      <point x="589" y="1495" type="curve" smooth="yes"/>
      <point x="589" y="1456"/>
      <point x="573" y="1417"/>
      <point x="545" y="1379" type="curve" smooth="yes"/>
      <point x="325" y="1090" type="line"/>
      <point x="314" y="1073"/>
      <point x="302" y="1046"/>
    </contour>
  </outline>
</glyph>
<glyph name="scircumflex" format="1">
  <advance width="833"/>
  <unicode hex="015D"/>
  <outline>
    <contour>
      <point x="426" y="-20" type="curve" smooth="yes"/>
      <point x="292" y="-20"/>
      <point x="149" y="19"/>
      <point x="65" y="101" type="curve"/>
      <point x="47" y="120" type="line"/>
      <point x="85" y="376" type="line"/>
      <point x="153" y="326" type="line" smooth="yes"/>
      <point x="218" y="279"/>
      <point x="331" y="236"/>
      <point x="424" y="236" type="curve" smooth="yes"/>
      <point x="492" y="236"/>
      <point x="516" y="257"/>
      <point x="516" y="286" type="curve" smooth="yes"/>
      <point x="516" y="301"/>
      <point x="508" y="328"/>
      <point x="446" y="363" type="curve"/>
      <point x="234" y="471" type="line"/>
      <point x="103" y="541"/>
      <point x="55" y="644"/>
      <point x="55" y="739" type="curve" smooth="yes"/>
      <point x="55" y="888"/>
      <point x="195" y="1017"/>
      <point x="430" y="1017" type="curve" smooth="yes"/>
      <point x="530" y="1017"/>
      <point x="649" y="989"/>
      <point x="730" y="937" type="curve" smooth="yes"/>
      <point x="761" y="917" type="line"/>
      <point x="700" y="675" type="line"/>
      <point x="642" y="708" type="line" smooth="yes"/>
      <point x="593" y="736"/>
      <point x="513" y="770"/>
      <point x="441" y="770" type="curve" smooth="yes"/>
      <point x="367" y="770"/>
      <point x="336" y="752"/>
      <point x="336" y="711" type="curve" smooth="yes"/>
      <point x="336" y="700"/>
      <point x="342" y="674"/>
      <point x="417" y="627" type="curve"/>
      <point x="599" y="525" type="line" smooth="yes"/>
      <point x="724" y="454"/>
      <point x="787" y="355"/>
      <point x="787" y="260" type="curve" smooth="yes"/>
      <point x="787" y="107"/>
      <point x="639" y="-20"/>
    </contour>
    <contour>
      <point x="82" y="1045" type="curve" smooth="yes"/>
      <point x="65" y="1045"/>
      <point x="40" y="1053"/>
      <point x="40" y="1100" type="curve" smooth="yes"/>
      <point x="40" y="1142"/>
      <point x="53" y="1135"/>
      <point x="53" y="1135" type="curve"/>
      <point x="315" y="1538" type="line"/>
      <point x="337" y="1569"/>
      <point x="367" y="1576"/>
      <point x="394" y="1576" type="curve" smooth="yes"/>
      <point x="419" y="1576"/>
      <point x="451" y="1573"/>
      <point x="477" y="1532" type="curve" smooth="yes"/>
      <point x="747" y="1117" type="line"/>
      <point x="747" y="1100" type="line" smooth="yes"/>
      <point x="747" y="1060"/>
      <point x="709" y="1047"/>
      <point x="693" y="1047" type="curve" smooth="yes"/>
      <point x="693" y="1047"/>
      <point x="681" y="1047"/>
      <point x="666" y="1054" type="curve"/>
      <point x="394" y="1242" type="line"/>
      <point x="130" y="1059" type="line"/>
      <point x="96" y="1047" type="line"/>
      <point x="96" y="1047"/>
      <point x="90" y="1045"/>
    </contour>
  </outline>
</glyph>
<glyph name="Utilde" format="1">
  <advance width="1486"/>
  <unicode hex="0168"/>
  <outline>
    <contour>
      <point x="744" y="-20" type="curve" smooth="yes"/>
      <point x="1071" y="-20"/>
      <point x="1407" y="186"/>
      <point x="1407" y="595" type="curve" smooth="yes"/>
      <point x="1407" y="1515" type="line"/>
      <point x="1113" y="1515" type="line"/>
      <point x="1113" y="614" type="line" smooth="yes"/>
      <point x="1113" y="372"/>
      <point x="929" y="256"/>
      <point x="741" y="256" type="curve" smooth="yes"/>
      <point x="553" y="256"/>
      <point x="372" y="371"/>
      <point x="372" y="614" type="curve" smooth="yes"/>
      <point x="372" y="1515" type="line"/>
      <point x="78" y="1515" type="line"/>
      <point x="78" y="594" type="line" smooth="yes"/>
      <point x="78" y="186"/>
      <point x="417" y="-20"/>
    </contour>
    <contour>
      <point x="859" y="1548" type="curve" smooth="yes"/>
      <point x="982" y="1548"/>
      <point x="1066" y="1623"/>
      <point x="1128" y="1715" type="curve" smooth="yes"/>
      <point x="1135" y="1725"/>
      <point x="1141" y="1739"/>
      <point x="1141" y="1759" type="curve" smooth="yes"/>
      <point x="1141" y="1789"/>
      <point x="1112" y="1823"/>
      <point x="1078" y="1823" type="curve" smooth="yes"/>
      <point x="1001" y="1823"/>
      <point x="1010" y="1778"/>
      <point x="971" y="1778" type="curve" smooth="yes"/>
      <point x="914" y="1778"/>
      <point x="749" y="1866"/>
      <point x="605" y="1866" type="curve" smooth="yes"/>
      <point x="487" y="1866"/>
      <point x="413" y="1790"/>
      <point x="358" y="1700" type="curve"/>
      <point x="350" y="1690"/>
      <point x="343" y="1667"/>
      <point x="343" y="1655" type="curve" smooth="yes"/>
      <point x="343" y="1618"/>
      <point x="374" y="1591"/>
      <point x="408" y="1591" type="curve" smooth="yes"/>
      <point x="481" y="1591"/>
      <point x="478" y="1636"/>
      <point x="513" y="1636" type="curve" smooth="yes"/>
      <point x="604" y="1636"/>
      <point x="741" y="1548"/>
    </contour>
  </outline>
</glyph>
<glyph name="Umacron" format="1">
  <advance width="1486"/>
  <unicode hex="016A"/>
  <outline>
    <contour>
      <point x="744" y="-20" type="curve" smooth="yes"/>
      <point x="1071" y="-20"/>
      <point x="1407" y="187"/>
      <point x="1407" y="596" type="curve" smooth="yes"/>
      <point x="1407" y="1515" type="line"/>
      <point x="1113" y="1515" type="line"/>
      <point x="1113" y="614" type="line" smooth="yes"/>
      <point x="1113" y="373"/>
      <point x="929" y="257"/>
      <point x="741" y="257" type="curve" smooth="yes"/>
      <point x="553" y="257"/>
      <point x="372" y="372"/>
      <point x="372" y="614" type="curve" smooth="yes"/>
      <point x="372" y="1515" type="line"/>
      <point x="78" y="1515" type="line"/>
      <point x="78" y="595" type="line" smooth="yes"/>
      <point x="78" y="187"/>
      <point x="416" y="-20"/>
    </contour>
    <contour>
      <point x="435" y="1566" type="line"/>
      <point x="1050" y="1566" type="line"/>
      <point x="1050" y="1820" type="line"/>
      <point x="435" y="1820" type="line"/>
    </contour>
  </outline>
</glyph>
<glyph name="uogonek" format="1">
  <advance width="1003"/>
  <unicode hex="0173"/>
  <outline>
    <contour>
      <point x="526" y="-430" type="curve" smooth="yes"/>
      <point x="357" y="-430"/>
      <point x="241" y="-299"/>
      <point x="241" y="-159" type="curve" smooth="yes"/>
      <point x="241" y="-102"/>
      <point x="258" y="-43"/>
      <point x="293" y="3" type="curve"/>
      <point x="153" y="47"/>
      <point x="49" y="169"/>
      <point x="49" y="351" type="curve" smooth="yes"/>
      <point x="49" y="998" type="line"/>
      <point x="330" y="998" type="line"/>
      <point x="330" y="359" type="line" smooth="yes"/>
      <point x="330" y="255"/>
      <point x="384" y="229"/>
      <point x="452" y="229" type="curve" smooth="yes"/>
      <point x="527" y="229"/>
      <point x="619" y="270"/>
      <point x="667" y="326" type="curve"/>
      <point x="667" y="998" type="line"/>
      <point x="946" y="998" type="line"/>
      <point x="946" y="0" type="line"/>
      <point x="669" y="0" type="line"/>
      <point x="669" y="66" type="line"/>
      <point x="640" y="45"/>
      <point x="608" y="27"/>
      <point x="578" y="15" type="curve"/>
      <point x="605" y="-26" type="line"/>
      <point x="544" y="-47" type="line" smooth="yes"/>
      <point x="481" y="-69"/>
      <point x="462" y="-106"/>
      <point x="462" y="-125" type="curve" smooth="yes"/>
      <point x="462" y="-148"/>
      <point x="488" y="-198"/>
      <point x="597" y="-198" type="curve" smooth="yes"/>
      <point x="664" y="-198" type="line"/>
      <point x="611" y="-418" type="line"/>
      <point x="580" y="-425" type="line" smooth="yes"/>
      <point x="561" y="-429"/>
      <point x="542" y="-430"/>
    </contour>
  </outline>
</glyph>
<glyph name="Ydieresis" format="1">
  <advance width="1266"/>
  <unicode hex="0178"/>
  <outline>
    <contour>
      <point x="478" y="0" type="line"/>
      <point x="788" y="0" type="line"/>
      <point x="788" y="781" type="line"/>
      <point x="1359" y="1516" type="line"/>
      <point x="1012" y="1516" type="line"/>
      <point x="631" y="994" type="line"/>
      <point x="266" y="1516" type="line"/>
      <point x="-98" y="1516" type="line"/>
      <point x="478" y="785" type="line"/>
    </contour>
    <contour>
      <point x="442" y="1565" type="curve" smooth="yes"/>
      <point x="521" y="1565"/>
      <point x="611" y="1621"/>
      <point x="611" y="1730" type="curve" smooth="yes"/>
      <point x="611" y="1839"/>
      <point x="524" y="1901"/>
      <point x="442" y="1901" type="curve" smooth="yes"/>
      <point x="360" y="1901"/>
      <point x="275" y="1838"/>
      <point x="275" y="1730" type="curve" smooth="yes"/>
      <point x="275" y="1623"/>
      <point x="362" y="1565"/>
    </contour>
    <contour>
      <point x="818" y="1565" type="curve" smooth="yes"/>
      <point x="898" y="1565"/>
      <point x="986" y="1622"/>
      <point x="986" y="1730" type="curve" smooth="yes"/>
      <point x="986" y="1838"/>
      <point x="901" y="1901"/>
      <point x="818" y="1901" type="curve" smooth="yes"/>
      <point x="737" y="1901"/>
      <point x="650" y="1839"/>
      <point x="650" y="1730" type="curve" smooth="yes"/>
      <point x="650" y="1622"/>
      <point x="740" y="1565"/>
    </contour>
  </outline>
</glyph>
<glyph name="Zacute" format="1">
  <advance width="1392"/>
  <unicode hex="0179"/>
  <outline>
    <contour>
      <point x="55" y="0" type="line"/>
      <point x="1365" y="0" type="line"/>
      <point x="1365" y="270" type="line"/>
      <point x="536" y="270" type="line"/>
      <point x="1375" y="1464" type="line"/>
      <point x="1326" y="1515" type="line"/>
      <point x="95" y="1515" type="line"/>
      <point x="95" y="1250" type="line"/>
      <point x="873" y="1250" type="line"/>
      <point x="42" y="67" type="line"/>
    </contour>
    <contour>
      <point x="570" y="1566" type="curve" smooth="yes"/>
      <point x="606" y="1566"/>
      <point x="620" y="1585"/>
      <point x="636" y="1609" type="curve"/>
      <point x="856" y="1898" type="line" smooth="yes"/>
      <point x="884" y="1936"/>
      <point x="900" y="1975"/>
      <point x="900" y="2014" type="curve" smooth="yes"/>
      <point x="900" y="2100"/>
      <point x="826" y="2152"/>
      <point x="758" y="2152" type="curve" smooth="yes"/>
      <point x="694" y="2152"/>
      <point x="634" y="2110"/>
      <point x="611" y="2028" type="curve"/>
      <point x="514" y="1666" type="line" smooth="yes"/>
      <point x="510" y="1653"/>
      <point x="509" y="1643"/>
      <point x="509" y="1632" type="curve" smooth="yes"/>
      <point x="509" y="1617"/>
      <point x="520" y="1566"/>
    </contour>
  </outline>
</glyph>
<glyph name="Zcaron" format="1">
  <advance width="1392"/>
  <unicode hex="017D"/>
  <outline>
    <contour>
      <point x="704" y="1567" type="curve" smooth="yes"/>
      <point x="733" y="1567"/>
      <point x="761" y="1577"/>
      <point x="783" y="1602" type="curve"/>
      <point x="1053" y="2018" type="line"/>
      <point x="1061" y="2037"/>
      <point x="1059" y="2042"/>
      <point x="1059" y="2043" type="curve" smooth="yes"/>
      <point x="1059" y="2083"/>
      <point x="1021" y="2096"/>
      <point x="1005" y="2096" type="curve" smooth="yes"/>
      <point x="992" y="2096"/>
      <point x="985" y="2092"/>
      <point x="978" y="2090" type="curve"/>
      <point x="887" y="2027"/>
      <point x="796" y="1964"/>
      <point x="704" y="1900" type="curve"/>
      <point x="439" y="2086" type="line" smooth="yes"/>
      <point x="432" y="2091"/>
      <point x="412" y="2096"/>
      <point x="404" y="2096" type="curve" smooth="yes"/>
      <point x="373" y="2096"/>
      <point x="351" y="2074"/>
      <point x="351" y="2043" type="curve" smooth="yes"/>
      <point x="351" y="2025" type="line"/>
      <point x="625" y="1603" type="line"/>
      <point x="647" y="1575"/>
      <point x="677" y="1567"/>
    </contour>
    <contour>
      <point x="55" y="0" type="line"/>
      <point x="1365" y="0" type="line"/>
      <point x="1365" y="271" type="line"/>
      <point x="536" y="271" type="line"/>
      <point x="1374" y="1462" type="line"/>
      <point x="1328" y="1516" type="line"/>
      <point x="95" y="1516" type="line"/>
      <point x="95" y="1250" type="line"/>
      <point x="873" y="1250" type="line"/>
      <point x="42" y="67" type="line"/>
    </contour>
  </outline>
</glyph>
<glyph name="zcaron" format="1">
  <advance width="904"/>
  <unicode hex="017E"/>
  <outline>
    <contour>
      <point x="444" y="1047" type="curve" smooth="yes"/>
      <point x="412" y="1047"/>
      <point x="386" y="1058"/>
      <point x="366" y="1082" type="curve"/>
      <point x="91" y="1506" type="line"/>
      <point x="91" y="1523" type="line" smooth="yes"/>
      <point x="91" y="1554"/>
      <point x="113" y="1576"/>
      <point x="144" y="1576" type="curve"/>
      <point x="145" y="1576" type="line"/>
      <point x="148" y="1576"/>
      <point x="158" y="1576"/>
      <point x="172" y="1570" type="curve"/>
      <point x="444" y="1380" type="line"/>
      <point x="718" y="1571" type="line" smooth="yes"/>
      <point x="727" y="1577"/>
      <point x="733" y="1578"/>
      <point x="737" y="1578" type="curve" smooth="yes"/>
      <point x="742" y="1578"/>
      <point x="743" y="1576"/>
      <point x="743" y="1576" type="curve"/>
      <point x="744" y="1576"/>
      <point x="799" y="1574"/>
      <point x="799" y="1523" type="curve" smooth="yes"/>
      <point x="799" y="1481"/>
      <point x="786" y="1488"/>
      <point x="786" y="1488" type="curve"/>
      <point x="521" y="1082" type="line"/>
      <point x="502" y="1059"/>
      <point x="477" y="1047"/>
    </contour>
    <contour>
      <point x="37" y="0" type="line"/>
      <point x="10" y="82" type="line"/>
      <point x="476" y="755" type="line"/>
      <point x="53" y="755" type="line"/>
      <point x="53" y="999" type="line"/>
      <point x="847" y="999" type="line"/>
      <point x="887" y="908" type="line"/>
      <point x="420" y="243" type="line"/>
      <point x="867" y="243" type="line"/>
      <point x="867" y="0" type="line"/>
    </contour>
  </outline>
</glyph>
<glyph name="uni01C4" format="1">
  <advance width="2949"/>
  <unicode hex="01C4"/>
  <outline>
    <contour>
      <point x="704" y="1567" type="curve" smooth="yes"/>
      <point x="731" y="1567"/>
      <point x="761" y="1575"/>
      <point x="783" y="1603" type="curve"/>
      <point x="1053" y="2018" type="line"/>
      <point x="1061" y="2037"/>
      <point x="1059" y="2042"/>
      <point x="1059" y="2043" type="curve" smooth="yes"/>
      <point x="1059" y="2083"/>
      <point x="1021" y="2096"/>
      <point x="1005" y="2096" type="curve" smooth="yes"/>
      <point x="1002" y="2096"/>
      <point x="981" y="2091"/>
      <point x="976" y="2088" type="curve" smooth="yes"/>
      <point x="704" y="1900" type="line"/>
      <point x="436" y="2088" type="line"/>
      <point x="420" y="2096"/>
      <point x="405" y="2096"/>
      <point x="404" y="2096" type="curve" smooth="yes"/>
      <point x="373" y="2096"/>
      <point x="351" y="2074"/>
      <point x="351" y="2043" type="curve" smooth="yes"/>
      <point x="351" y="2025" type="line"/>
      <point x="625" y="1603" type="line"/>
      <point x="647" y="1575"/>
      <point x="677" y="1567"/>
    </contour>
    <contour>
      <point x="55" y="0" type="line"/>
      <point x="1365" y="0" type="line"/>
      <point x="1365" y="271" type="line"/>
      <point x="536" y="271" type="line"/>
      <point x="1375" y="1464" type="line"/>
      <point x="1325" y="1516" type="line"/>
      <point x="95" y="1516" type="line"/>
      <point x="95" y="1250" type="line"/>
      <point x="873" y="1250" type="line"/>
      <point x="42" y="67" type="line"/>
    </contour>
    <contour>
      <point x="1762" y="177" type="line"/>
      <point x="1762" y="1235" type="line"/>
      <point x="2103" y="1235" type="line" smooth="yes"/>
      <point x="2378" y="1235"/>
      <point x="2583" y="1121"/>
      <point x="2583" y="710" type="curve" smooth="yes"/>
      <point x="2583" y="350"/>
      <point x="2375" y="177"/>
      <point x="2055" y="177" type="curve" smooth="yes"/>
    </contour>
    <contour>
      <point x="1469" y="0" type="line"/>
      <point x="2098" y="0" type="line" smooth="yes"/>
      <point x="2606" y="0"/>
      <point x="2893" y="360"/>
      <point x="2893" y="764" type="curve" smooth="yes"/>
      <point x="2893" y="1199"/>
      <point x="2625" y="1516"/>
      <point x="2131" y="1516" type="curve" smooth="yes"/>
      <point x="1469" y="1516" type="line"/>
    </contour>
  </outline>
</glyph>
<glyph name="uni01c8" format="1">
  <advance width="1502"/>
  <unicode hex="01C8"/>
  <outline>
    <contour>
      <point x="-25" y="-384" type="line"/>
      <point x="-73" y="-140" type="line"/>
      <point x="-11" y="-140" type="line" smooth="yes"/>
      <point x="120" y="-140"/>
      <point x="126" y="-81"/>
      <point x="126" y="20" type="curve" smooth="yes"/>
      <point x="126" y="55" type="line"/>
      <point x="126" y="1118" type="line"/>
      <point x="409" y="1118" type="line"/>
      <point x="409" y="-28" type="line" smooth="yes"/>
      <point x="409" y="-134"/>
      <point x="355" y="-384"/>
      <point x="17" y="-384" type="curve" smooth="yes"/>
    </contour>
    <contour>
      <point x="552" y="-51" type="line"/>
      <point x="552" y="1515" type="line"/>
      <point x="845" y="1515" type="line"/>
      <point x="845" y="230" type="line"/>
      <point x="1472" y="230" type="line"/>
      <point x="1472" y="-51" type="line"/>
    </contour>
    <contour>
      <point x="269" y="1054" type="curve" smooth="yes"/>
      <point x="159" y="1054"/>
      <point x="90" y="1137"/>
      <point x="90" y="1225" type="curve" smooth="yes"/>
      <point x="90" y="1312"/>
      <point x="158" y="1397"/>
      <point x="269" y="1397" type="curve" smooth="yes"/>
      <point x="381" y="1397"/>
      <point x="443" y="1309"/>
      <point x="443" y="1225" type="curve" smooth="yes"/>
      <point x="443" y="1139"/>
      <point x="380" y="1054"/>
    </contour>
  </outline>
</glyph>
<glyph name="uni01F2" format="1">
  <advance width="2461"/>
  <unicode hex="01F2"/>
  <outline>
    <contour>
      <point x="37" y="0" type="line"/>
      <point x="867" y="0" type="line"/>
      <point x="867" y="242" type="line"/>
      <point x="420" y="242" type="line"/>
      <point x="884" y="952" type="line"/>
      <point x="848" y="1049" type="line"/>
      <point x="53" y="1049" type="line"/>
      <point x="53" y="805" type="line"/>
      <point x="476" y="805" type="line"/>
      <point x="10" y="87" type="line"/>
    </contour>
    <contour>
      <point x="1274" y="279" type="line"/>
      <point x="1274" y="1235" type="line"/>
      <point x="1615" y="1235" type="line" smooth="yes"/>
      <point x="1890" y="1235"/>
      <point x="2095" y="1132"/>
      <point x="2095" y="760" type="curve" smooth="yes"/>
      <point x="2095" y="435"/>
      <point x="1887" y="279"/>
      <point x="1567" y="279" type="curve" smooth="yes"/>
    </contour>
    <contour>
      <point x="980" y="0" type="line"/>
      <point x="1609" y="0" type="line" smooth="yes"/>
      <point x="2117" y="0"/>
      <point x="2407" y="361"/>
      <point x="2407" y="763" type="curve" smooth="yes"/>
      <point x="2407" y="1199"/>
      <point x="2137" y="1516"/>
      <point x="1643" y="1516" type="curve" smooth="yes"/>
      <point x="980" y="1516" type="line"/>
    </contour>
  </outline>
</glyph>
<glyph name="uni0203" format="1">
  <advance width="958"/>
  <unicode hex="0203"/>
  <outline>
    <contour>
      <point x="831" y="-27" type="line"/>
      <point x="792" y="-9" type="line" smooth="yes"/>
      <point x="742" y="14"/>
      <point x="677" y="53"/>
      <point x="630" y="103" type="curve"/>
      <point x="547" y="14"/>
      <point x="435" y="-21"/>
      <point x="354" y="-21" type="curve" smooth="yes"/>
      <point x="191" y="-21"/>
      <point x="35" y="53"/>
      <point x="35" y="245" type="curve" smooth="yes"/>
      <point x="35" y="374"/>
      <point x="162" y="488"/>
      <point x="425" y="551" type="curve"/>
      <point x="552" y="579" type="line"/>
      <point x="552" y="595" type="line" smooth="yes"/>
      <point x="552" y="697"/>
      <point x="507" y="741"/>
      <point x="433" y="741" type="curve" smooth="yes"/>
      <point x="337" y="741"/>
      <point x="252" y="696"/>
      <point x="190" y="637" type="curve" smooth="yes"/>
      <point x="132" y="581" type="line"/>
      <point x="46" y="840" type="line"/>
      <point x="67" y="862" type="line" smooth="yes"/>
      <point x="117" y="915"/>
      <point x="269" y="1006"/>
      <point x="429" y="1006" type="curve" smooth="yes"/>
      <point x="609" y="1006"/>
      <point x="831" y="919"/>
      <point x="831" y="674" type="curve" smooth="yes"/>
      <point x="831" y="303" type="line" smooth="yes"/>
      <point x="831" y="230"/>
      <point x="843" y="246"/>
      <point x="935" y="202" type="curve" smooth="yes"/>
      <point x="986" y="177" type="line"/>
    </contour>
    <contour>
      <point x="176" y="1047" type="line"/>
      <point x="178" y="1100" type="line" smooth="yes"/>
      <point x="185" y="1292"/>
      <point x="353" y="1400"/>
      <point x="499" y="1400" type="curve" smooth="yes"/>
      <point x="645" y="1400"/>
      <point x="812" y="1292"/>
      <point x="819" y="1100" type="curve" smooth="yes"/>
      <point x="821" y="1047" type="line"/>
      <point x="579" y="1047" type="line"/>
      <point x="574" y="1092" type="line" smooth="yes"/>
      <point x="567" y="1152"/>
      <point x="540" y="1171"/>
      <point x="498" y="1171" type="curve" smooth="yes"/>
      <point x="457" y="1171"/>
      <point x="430" y="1152"/>
      <point x="423" y="1092" type="curve" smooth="yes"/>
      <point x="418" y="1047" type="line"/>
    </contour>
    <contour>
      <point x="380" y="168" type="curve" smooth="yes"/>
      <point x="427" y="168"/>
      <point x="503" y="195"/>
      <point x="551" y="244" type="curve"/>
      <point x="551" y="391" type="line"/>
      <point x="419" y="352"/>
      <point x="326" y="311"/>
      <point x="326" y="244" type="curve" smooth="yes"/>
      <point x="326" y="204"/>
      <point x="336" y="187"/>
      <point x="344" y="179" type="curve" smooth="yes"/>
      <point x="351" y="172"/>
      <point x="364" y="168"/>
    </contour>
  </outline>
</glyph>
<glyph name="uni0209" format="1">
  <advance width="457"/>
  <unicode hex="0209"/>
  <outline>
    <contour>
      <point x="111" y="0" type="line"/>
      <point x="394" y="0" type="line"/>
      <point x="394" y="998" type="line"/>
      <point x="111" y="998" type="line"/>
    </contour>
  </outline>
</glyph>
<glyph name="uni020B" format="1">
  <advance width="456"/>
  <unicode hex="020B"/>
  <outline>
    <contour>
      <point x="-72" y="1047" type="line"/>
      <point x="-70" y="1100" type="line" smooth="yes"/>
      <point x="-63" y="1292"/>
      <point x="105" y="1401"/>
      <point x="251" y="1401" type="curve" smooth="yes"/>
      <point x="397" y="1401"/>
      <point x="564" y="1292"/>
      <point x="571" y="1100" type="curve" smooth="yes"/>
      <point x="573" y="1047" type="line"/>
      <point x="331" y="1047" type="line"/>
      <point x="326" y="1092" type="line" smooth="yes"/>
      <point x="319" y="1152"/>
      <point x="292" y="1171"/>
      <point x="250" y="1171" type="curve" smooth="yes"/>
      <point x="209" y="1171"/>
      <point x="182" y="1152"/>
      <point x="175" y="1092" type="curve" smooth="yes"/>
      <point x="170" y="1047" type="line"/>
    </contour>
    <contour>
      <point x="110" y="0" type="line"/>
      <point x="110" y="999" type="line"/>
      <point x="393" y="999" type="line"/>
      <point x="393" y="0" type="line"/>
    </contour>
  </outline>
</glyph>
<glyph name="uni0213" format="1">
  <advance width="823"/>
  <unicode hex="0213"/>
  <outline>
    <contour>
      <point x="57" y="0" type="line"/>
      <point x="57" y="999" type="line"/>
      <point x="335" y="999" type="line"/>
      <point x="335" y="902" type="line"/>
      <point x="390" y="967"/>
      <point x="465" y="1017"/>
      <point x="561" y="1017" type="curve" smooth="yes"/>
      <point x="629" y="1017"/>
      <point x="725" y="980"/>
      <point x="810" y="884" type="curve" smooth="yes"/>
      <point x="837" y="853" type="line"/>
      <point x="656" y="605" type="line"/>
      <point x="615" y="659" type="line" smooth="yes"/>
      <point x="587" y="695"/>
      <point x="546" y="725"/>
      <point x="517" y="725" type="curve" smooth="yes"/>
      <point x="486" y="725"/>
      <point x="410" y="702"/>
      <point x="366" y="594" type="curve" smooth="yes"/>
      <point x="347" y="548"/>
      <point x="335" y="487"/>
      <point x="335" y="406" type="curve" smooth="yes"/>
      <point x="335" y="0" type="line"/>
    </contour>
    <contour>
      <point x="113" y="1047" type="line"/>
      <point x="115" y="1100" type="line" smooth="yes"/>
      <point x="123" y="1291"/>
      <point x="290" y="1401"/>
      <point x="438" y="1401" type="curve" smooth="yes"/>
      <point x="583" y="1401"/>
      <point x="751" y="1292"/>
      <point x="758" y="1100" type="curve" smooth="yes"/>
      <point x="760" y="1047" type="line"/>
      <point x="517" y="1047" type="line"/>
      <point x="512" y="1092" type="line" smooth="yes"/>
      <point x="505" y="1152"/>
      <point x="477" y="1171"/>
      <point x="437" y="1171" type="curve" smooth="yes"/>
      <point x="396" y="1171"/>
      <point x="368" y="1153"/>
      <point x="361" y="1092" type="curve" smooth="yes"/>
      <point x="355" y="1047" type="line"/>
    </contour>
  </outline>
</glyph>
<glyph name="uni0214" format="1">
  <advance width="1486"/>
  <unicode hex="0214"/>
  <outline>
    <contour>
      <point x="744" y="-18" type="curve" smooth="yes"/>
      <point x="1071" y="-18"/>
      <point x="1407" y="187"/>
      <point x="1407" y="598" type="curve" smooth="yes"/>
      <point x="1407" y="1515" type="line"/>
      <point x="1113" y="1515" type="line"/>
      <point x="1113" y="614" type="line" smooth="yes"/>
      <point x="1113" y="373"/>
      <point x="929" y="257"/>
      <point x="741" y="257" type="curve" smooth="yes"/>
      <point x="553" y="257"/>
      <point x="372" y="372"/>
      <point x="372" y="614" type="curve" smooth="yes"/>
      <point x="372" y="1515" type="line"/>
      <point x="78" y="1515" type="line"/>
      <point x="78" y="597" type="line" smooth="yes"/>
      <point x="78" y="187"/>
      <point x="417" y="-18"/>
    </contour>
  </outline>
</glyph>
<glyph name="uni021B" format="1">
  <advance width="747"/>
  <unicode hex="021B"/>
  <outline>
    <contour>
      <point x="451" y="-21" type="curve" smooth="yes"/>
      <point x="279" y="-21"/>
      <point x="114" y="76"/>
      <point x="114" y="250" type="curve" smooth="yes"/>
      <point x="114" y="757" type="line"/>
      <point x="35" y="757" type="line" smooth="yes"/>
      <point x="20" y="757"/>
      <point x="-43" y="759"/>
      <point x="-43" y="822" type="curve" smooth="yes"/>
      <point x="-43" y="849"/>
      <point x="-33" y="863"/>
      <point x="-23" y="876" type="curve"/>
      <point x="300" y="1238" type="line"/>
      <point x="394" y="1238" type="line"/>
      <point x="394" y="996" type="line"/>
      <point x="702" y="996" type="line"/>
      <point x="702" y="757" type="line"/>
      <point x="394" y="757" type="line"/>
      <point x="394" y="301" type="line" smooth="yes"/>
      <point x="394" y="242"/>
      <point x="421" y="231"/>
      <point x="475" y="231" type="curve" smooth="yes"/>
      <point x="526" y="231"/>
      <point x="608" y="268"/>
      <point x="673" y="312" type="curve" smooth="yes"/>
      <point x="753" y="366" type="line"/>
      <point x="753" y="87" type="line"/>
      <point x="733" y="72" type="line" smooth="yes"/>
      <point x="650" y="8"/>
      <point x="548" y="-21"/>
    </contour>
    <contour>
      <point x="233" y="-626" type="line"/>
      <point x="160" y="-547" type="line"/>
      <point x="197" y="-513" type="line" smooth="yes"/>
      <point x="242" y="-471"/>
      <point x="258" y="-442"/>
      <point x="264" y="-397" type="curve"/>
      <point x="198" y="-363"/>
      <point x="167" y="-300"/>
      <point x="167" y="-239" type="curve" smooth="yes"/>
      <point x="167" y="-119"/>
      <point x="259" y="-51"/>
      <point x="351" y="-51" type="curve" smooth="yes"/>
      <point x="442" y="-51"/>
      <point x="543" y="-117"/>
      <point x="543" y="-248" type="curve" smooth="yes"/>
      <point x="543" y="-399"/>
      <point x="407" y="-626"/>
      <point x="255" y="-626" type="curve" smooth="yes"/>
    </contour>
  </outline>
</glyph>
<glyph name="quotedblleft" format="1">
  <advance width="872"/>
  <unicode hex="201C"/>
  <outline>
    <contour>
      <point x="234.0" y="965.0" type="curve" smooth="yes"/>
      <point x="326.0" y="965.0"/>
      <point x="418.0" y="1045.0"/>
      <point x="418.0" y="1133.0" type="curve" smooth="yes"/>
      <point x="418.0" y="1199.0"/>
      <point x="393.0" y="1279.0"/>
      <point x="289.0" y="1300.0" type="curve"/>
      <point x="296.0" y="1348.0"/>
      <point x="342.0" y="1409.0"/>
      <point x="417.0" y="1462.0" type="curve"/>
      <point x="351.0" y="1538.0" type="line"/>
      <point x="150.0" y="1470.0"/>
      <point x="41.0" y="1314.0"/>
      <point x="41.0" y="1161.0" type="curve" smooth="yes"/>
      <point x="41.0" y="1033.0"/>
      <point x="136.0" y="965.0"/>
    </contour>
    <contour>
      <point x="659" y="965" type="curve" smooth="yes"/>
      <point x="751" y="965"/>
      <point x="843" y="1045"/>
      <point x="843" y="1133" type="curve" smooth="yes"/>
      <point x="843" y="1199"/>
      <point x="818" y="1279"/>
      <point x="714" y="1300" type="curve"/>
      <point x="721" y="1348"/>
      <point x="767" y="1409"/>
      <point x="842" y="1462" type="curve"/>
      <point x="776" y="1538" type="line"/>
      <point x="575" y="1470"/>
      <point x="466" y="1314"/>
      <point x="466" y="1161" type="curve" smooth="yes"/>
      <point x="466" y="1033"/>
      <point x="561" y="965"/>
    </contour>
  </outline>
</glyph>
